%TF.GenerationSoftware,KiCad,Pcbnew,(5.1.12-1-10_14)*%
%TF.CreationDate,2021-12-21T21:30:39-06:00*%
%TF.ProjectId,Weather,57656174-6865-4722-9e6b-696361645f70,rev?*%
%TF.SameCoordinates,Original*%
%TF.FileFunction,AssemblyDrawing,Bot*%
%FSLAX46Y46*%
G04 Gerber Fmt 4.6, Leading zero omitted, Abs format (unit mm)*
G04 Created by KiCad (PCBNEW (5.1.12-1-10_14)) date 2021-12-21 21:30:39*
%MOMM*%
%LPD*%
G01*
G04 APERTURE LIST*
%ADD10C,0.120000*%
%ADD11C,0.100000*%
%ADD12C,0.150000*%
G04 APERTURE END LIST*
D10*
%TO.C,U3*%
X125241600Y-115706400D02*
G75*
G03*
X125241600Y-115706400I-400000J0D01*
G01*
X125841600Y-112706400D02*
X120741600Y-112706400D01*
X125841600Y-116706400D02*
X125841600Y-112706400D01*
X120741600Y-116706400D02*
X125841600Y-116706400D01*
X120741600Y-116706400D02*
X120741600Y-112706400D01*
D11*
%TO.C,R12*%
X135560000Y-94780000D02*
X138760000Y-94780000D01*
X135560000Y-93180000D02*
X135560000Y-94780000D01*
X138760000Y-93180000D02*
X135560000Y-93180000D01*
X138760000Y-94780000D02*
X138760000Y-93180000D01*
%TO.C,R13*%
X135280000Y-88430000D02*
X138480000Y-88430000D01*
X135280000Y-86830000D02*
X135280000Y-88430000D01*
X138480000Y-86830000D02*
X135280000Y-86830000D01*
X138480000Y-88430000D02*
X138480000Y-86830000D01*
%TO.C,R14*%
X135280000Y-82080000D02*
X138480000Y-82080000D01*
X135280000Y-80480000D02*
X135280000Y-82080000D01*
X138480000Y-80480000D02*
X135280000Y-80480000D01*
X138480000Y-82080000D02*
X138480000Y-80480000D01*
%TD*%
%TO.C,U3*%
D12*
X128672552Y-113658780D02*
X128005885Y-114658780D01*
X128005885Y-113658780D02*
X128672552Y-114658780D01*
X127148742Y-114658780D02*
X127624933Y-114658780D01*
X127624933Y-113658780D01*
X126291600Y-114658780D02*
X126863028Y-114658780D01*
X126577314Y-114658780D02*
X126577314Y-113658780D01*
X126672552Y-113801638D01*
X126767790Y-113896876D01*
X126863028Y-113944495D01*
X125386838Y-113658780D02*
X125863028Y-113658780D01*
X125910647Y-114134971D01*
X125863028Y-114087352D01*
X125767790Y-114039733D01*
X125529695Y-114039733D01*
X125434457Y-114087352D01*
X125386838Y-114134971D01*
X125339219Y-114230209D01*
X125339219Y-114468304D01*
X125386838Y-114563542D01*
X125434457Y-114611161D01*
X125529695Y-114658780D01*
X125767790Y-114658780D01*
X125863028Y-114611161D01*
X125910647Y-114563542D01*
X124720171Y-113658780D02*
X124624933Y-113658780D01*
X124529695Y-113706400D01*
X124482076Y-113754019D01*
X124434457Y-113849257D01*
X124386838Y-114039733D01*
X124386838Y-114277828D01*
X124434457Y-114468304D01*
X124482076Y-114563542D01*
X124529695Y-114611161D01*
X124624933Y-114658780D01*
X124720171Y-114658780D01*
X124815409Y-114611161D01*
X124863028Y-114563542D01*
X124910647Y-114468304D01*
X124958266Y-114277828D01*
X124958266Y-114039733D01*
X124910647Y-113849257D01*
X124863028Y-113754019D01*
X124815409Y-113706400D01*
X124720171Y-113658780D01*
X123910647Y-114658780D02*
X123720171Y-114658780D01*
X123624933Y-114611161D01*
X123577314Y-114563542D01*
X123482076Y-114420685D01*
X123434457Y-114230209D01*
X123434457Y-113849257D01*
X123482076Y-113754019D01*
X123529695Y-113706400D01*
X123624933Y-113658780D01*
X123815409Y-113658780D01*
X123910647Y-113706400D01*
X123958266Y-113754019D01*
X124005885Y-113849257D01*
X124005885Y-114087352D01*
X123958266Y-114182590D01*
X123910647Y-114230209D01*
X123815409Y-114277828D01*
X123624933Y-114277828D01*
X123529695Y-114230209D01*
X123482076Y-114182590D01*
X123434457Y-114087352D01*
X123005885Y-114277828D02*
X122243980Y-114277828D01*
X121291600Y-113658780D02*
X121767790Y-113658780D01*
X121815409Y-114134971D01*
X121767790Y-114087352D01*
X121672552Y-114039733D01*
X121434457Y-114039733D01*
X121339219Y-114087352D01*
X121291600Y-114134971D01*
X121243980Y-114230209D01*
X121243980Y-114468304D01*
X121291600Y-114563542D01*
X121339219Y-114611161D01*
X121434457Y-114658780D01*
X121672552Y-114658780D01*
X121767790Y-114611161D01*
X121815409Y-114563542D01*
X120815409Y-114563542D02*
X120767790Y-114611161D01*
X120815409Y-114658780D01*
X120863028Y-114611161D01*
X120815409Y-114563542D01*
X120815409Y-114658780D01*
X120148742Y-113658780D02*
X120053504Y-113658780D01*
X119958266Y-113706400D01*
X119910647Y-113754019D01*
X119863028Y-113849257D01*
X119815409Y-114039733D01*
X119815409Y-114277828D01*
X119863028Y-114468304D01*
X119910647Y-114563542D01*
X119958266Y-114611161D01*
X120053504Y-114658780D01*
X120148742Y-114658780D01*
X120243980Y-114611161D01*
X120291600Y-114563542D01*
X120339219Y-114468304D01*
X120386838Y-114277828D01*
X120386838Y-114039733D01*
X120339219Y-113849257D01*
X120291600Y-113754019D01*
X120243980Y-113706400D01*
X120148742Y-113658780D01*
X119386838Y-114134971D02*
X119053504Y-114134971D01*
X118910647Y-114658780D02*
X119386838Y-114658780D01*
X119386838Y-113658780D01*
X118910647Y-113658780D01*
X117958266Y-114658780D02*
X118529695Y-114658780D01*
X118243980Y-114658780D02*
X118243980Y-113658780D01*
X118339219Y-113801638D01*
X118434457Y-113896876D01*
X118529695Y-113944495D01*
%TO.C,R12*%
X137850476Y-95585714D02*
X137850476Y-96252380D01*
X138088571Y-95204761D02*
X138326666Y-95919047D01*
X137707619Y-95919047D01*
X137421904Y-95252380D02*
X136802857Y-95252380D01*
X137136190Y-95633333D01*
X136993333Y-95633333D01*
X136898095Y-95680952D01*
X136850476Y-95728571D01*
X136802857Y-95823809D01*
X136802857Y-96061904D01*
X136850476Y-96157142D01*
X136898095Y-96204761D01*
X136993333Y-96252380D01*
X137279047Y-96252380D01*
X137374285Y-96204761D01*
X137421904Y-96157142D01*
X136374285Y-96252380D02*
X136374285Y-95252380D01*
X136279047Y-95871428D02*
X135993333Y-96252380D01*
X135993333Y-95585714D02*
X136374285Y-95966666D01*
D10*
X137674285Y-94341904D02*
X137940952Y-93960952D01*
X138131428Y-94341904D02*
X138131428Y-93541904D01*
X137826666Y-93541904D01*
X137750476Y-93580000D01*
X137712380Y-93618095D01*
X137674285Y-93694285D01*
X137674285Y-93808571D01*
X137712380Y-93884761D01*
X137750476Y-93922857D01*
X137826666Y-93960952D01*
X138131428Y-93960952D01*
X136912380Y-94341904D02*
X137369523Y-94341904D01*
X137140952Y-94341904D02*
X137140952Y-93541904D01*
X137217142Y-93656190D01*
X137293333Y-93732380D01*
X137369523Y-93770476D01*
X136607619Y-93618095D02*
X136569523Y-93580000D01*
X136493333Y-93541904D01*
X136302857Y-93541904D01*
X136226666Y-93580000D01*
X136188571Y-93618095D01*
X136150476Y-93694285D01*
X136150476Y-93770476D01*
X136188571Y-93884761D01*
X136645714Y-94341904D01*
X136150476Y-94341904D01*
%TO.C,R13*%
D12*
X137570476Y-89235714D02*
X137570476Y-89902380D01*
X137808571Y-88854761D02*
X138046666Y-89569047D01*
X137427619Y-89569047D01*
X137141904Y-88902380D02*
X136522857Y-88902380D01*
X136856190Y-89283333D01*
X136713333Y-89283333D01*
X136618095Y-89330952D01*
X136570476Y-89378571D01*
X136522857Y-89473809D01*
X136522857Y-89711904D01*
X136570476Y-89807142D01*
X136618095Y-89854761D01*
X136713333Y-89902380D01*
X136999047Y-89902380D01*
X137094285Y-89854761D01*
X137141904Y-89807142D01*
X136094285Y-89902380D02*
X136094285Y-88902380D01*
X135999047Y-89521428D02*
X135713333Y-89902380D01*
X135713333Y-89235714D02*
X136094285Y-89616666D01*
D10*
X137394285Y-87991904D02*
X137660952Y-87610952D01*
X137851428Y-87991904D02*
X137851428Y-87191904D01*
X137546666Y-87191904D01*
X137470476Y-87230000D01*
X137432380Y-87268095D01*
X137394285Y-87344285D01*
X137394285Y-87458571D01*
X137432380Y-87534761D01*
X137470476Y-87572857D01*
X137546666Y-87610952D01*
X137851428Y-87610952D01*
X136632380Y-87991904D02*
X137089523Y-87991904D01*
X136860952Y-87991904D02*
X136860952Y-87191904D01*
X136937142Y-87306190D01*
X137013333Y-87382380D01*
X137089523Y-87420476D01*
X136365714Y-87191904D02*
X135870476Y-87191904D01*
X136137142Y-87496666D01*
X136022857Y-87496666D01*
X135946666Y-87534761D01*
X135908571Y-87572857D01*
X135870476Y-87649047D01*
X135870476Y-87839523D01*
X135908571Y-87915714D01*
X135946666Y-87953809D01*
X136022857Y-87991904D01*
X136251428Y-87991904D01*
X136327619Y-87953809D01*
X136365714Y-87915714D01*
%TO.C,R14*%
D12*
X137475238Y-83552380D02*
X138046666Y-83552380D01*
X137760952Y-83552380D02*
X137760952Y-82552380D01*
X137856190Y-82695238D01*
X137951428Y-82790476D01*
X138046666Y-82838095D01*
X136856190Y-82552380D02*
X136760952Y-82552380D01*
X136665714Y-82600000D01*
X136618095Y-82647619D01*
X136570476Y-82742857D01*
X136522857Y-82933333D01*
X136522857Y-83171428D01*
X136570476Y-83361904D01*
X136618095Y-83457142D01*
X136665714Y-83504761D01*
X136760952Y-83552380D01*
X136856190Y-83552380D01*
X136951428Y-83504761D01*
X136999047Y-83457142D01*
X137046666Y-83361904D01*
X137094285Y-83171428D01*
X137094285Y-82933333D01*
X137046666Y-82742857D01*
X136999047Y-82647619D01*
X136951428Y-82600000D01*
X136856190Y-82552380D01*
X136094285Y-83552380D02*
X136094285Y-82552380D01*
X135999047Y-83171428D02*
X135713333Y-83552380D01*
X135713333Y-82885714D02*
X136094285Y-83266666D01*
D10*
X137394285Y-81641904D02*
X137660952Y-81260952D01*
X137851428Y-81641904D02*
X137851428Y-80841904D01*
X137546666Y-80841904D01*
X137470476Y-80880000D01*
X137432380Y-80918095D01*
X137394285Y-80994285D01*
X137394285Y-81108571D01*
X137432380Y-81184761D01*
X137470476Y-81222857D01*
X137546666Y-81260952D01*
X137851428Y-81260952D01*
X136632380Y-81641904D02*
X137089523Y-81641904D01*
X136860952Y-81641904D02*
X136860952Y-80841904D01*
X136937142Y-80956190D01*
X137013333Y-81032380D01*
X137089523Y-81070476D01*
X135946666Y-81108571D02*
X135946666Y-81641904D01*
X136137142Y-80803809D02*
X136327619Y-81375238D01*
X135832380Y-81375238D01*
%TD*%
M02*
