M48
; DRILL file {KiCad (5.1.12-1-10_14)} date Tuesday, December 21, 2021 at 09:30:44 PM
; FORMAT={-:-/ absolute / inch / decimal}
; #@! TF.CreationDate,2021-12-21T21:30:44-06:00
; #@! TF.GenerationSoftware,Kicad,Pcbnew,(5.1.12-1-10_14)
FMAT,2
INCH
T1C0.0157
T2C0.0197
T3C0.0299
T4C0.0315
T5C0.0394
T6C0.0409
T7C0.0433
T8C0.0520
T9C0.0630
T10C0.1260
T11C0.1280
%
G90
G05
T1
X4.637Y-4.665
X5.016Y-4.662
X5.401Y-3.321
X5.507Y-3.585
T2
X4.4635Y-4.478
X4.4912Y-4.4112
X4.4912Y-4.5448
X4.558Y-4.3835
X4.558Y-4.5725
X4.6248Y-4.4112
X4.6248Y-4.5448
X4.6525Y-4.478
X6.3565Y-2.773
X6.3842Y-2.7062
X6.3842Y-2.8398
X6.451Y-2.6785
X6.451Y-2.8675
X6.5178Y-2.7062
X6.5178Y-2.8398
X6.5455Y-2.773
X6.5785Y-4.997
X6.6062Y-4.9302
X6.6062Y-5.0638
X6.673Y-4.9025
X6.673Y-5.0915
X6.7398Y-4.9302
X6.7398Y-5.0638
X6.7675Y-4.997
T3
X4.85Y-3.35
X4.85Y-3.45
X4.85Y-3.55
X4.85Y-3.95
X4.85Y-4.05
X4.85Y-4.15
X4.95Y-3.3
X4.95Y-3.4
X4.95Y-3.5
X4.95Y-3.9
X4.95Y-4.0
X4.95Y-4.1
T4
X5.053Y-4.944
X5.053Y-5.0818
X5.295Y-4.385
X5.295Y-4.685
X5.468Y-4.385
X5.468Y-4.685
X5.76Y-4.381
X5.76Y-4.681
X5.929Y-4.383
X5.929Y-4.683
T5
X5.498Y-4.916
X5.498Y-5.1129
X6.298Y-4.686
X6.314Y-3.795
X6.314Y-3.895
X6.314Y-3.995
X6.314Y-4.095
X6.314Y-4.195
X6.314Y-4.295
X6.314Y-4.395
X6.314Y-4.495
X6.398Y-4.686
X6.519Y-3.801
X6.519Y-3.901
X6.519Y-4.001
X6.519Y-4.101
X6.519Y-4.201
X6.519Y-4.301
X6.519Y-4.401
X6.519Y-4.501
X6.733Y-2.67
X6.733Y-2.77
X6.733Y-2.87
X6.733Y-2.97
X6.735Y-3.125
X6.735Y-3.225
X6.735Y-3.325
X6.735Y-3.425
X6.741Y-3.784
X6.741Y-3.884
X6.741Y-3.984
X6.741Y-4.084
X6.741Y-4.184
X6.743Y-4.359
X6.743Y-4.459
X6.743Y-4.559
X6.743Y-4.659
T6
X5.1358Y-2.9018
X5.1358Y-3.0018
X5.1358Y-3.1018
X5.1358Y-3.2018
X5.1358Y-3.3018
X5.1358Y-3.4018
X5.1358Y-3.5018
X5.1358Y-3.6018
X5.1358Y-3.7018
X5.1358Y-3.8018
X5.1358Y-3.9018
X5.1358Y-4.0018
X5.1358Y-4.1018
X5.1358Y-4.2018
X5.1358Y-4.3018
X5.1358Y-4.4018
X5.1358Y-4.5018
X5.1358Y-4.6018
X5.1358Y-4.7018
X6.1358Y-2.9018
X6.1358Y-3.0018
X6.1358Y-3.1018
X6.1358Y-3.2018
X6.1358Y-3.3018
X6.1358Y-3.4018
X6.1358Y-3.5018
X6.1358Y-3.6018
X6.1358Y-3.7018
X6.1358Y-3.8018
X6.1358Y-3.9018
X6.1358Y-4.0018
X6.1358Y-4.1018
X6.1358Y-4.2018
X6.1358Y-4.3018
X6.1358Y-4.4018
X6.1358Y-4.5018
X6.1358Y-4.6018
X6.1358Y-4.7018
T7
X5.88Y-4.836
X5.88Y-5.236
T8
X4.448Y-2.814
X4.6449Y-2.814
X4.8417Y-2.814
X6.149Y-5.048
X6.3459Y-5.048
T9
X4.287Y-4.576
X4.287Y-5.176
T10
X4.558Y-4.478
X6.451Y-2.773
X6.673Y-4.997
T11
X4.6Y-3.2248
X4.6Y-3.6248
X4.6Y-3.8248
X4.6Y-4.2248
T4
G00X6.3149Y-3.1978
M15
G01X6.3149Y-3.1309
M16
G05
G00X6.3276Y-3.5537
M15
G01X6.3276Y-3.4671
M16
G05
G00X6.3847Y-3.408
M15
G01X6.4713Y-3.408
M16
G05
G00X6.3847Y-3.6127
M15
G01X6.4713Y-3.6127
M16
G05
G00X6.3975Y-3.062
M15
G01X6.4645Y-3.062
M16
G05
G00X6.3975Y-3.2667
M15
G01X6.4645Y-3.2667
M16
G05
T0
M30
