%TF.GenerationSoftware,KiCad,Pcbnew,(5.1.12-1-10_14)*%
%TF.CreationDate,2021-12-21T21:30:39-06:00*%
%TF.ProjectId,Weather,57656174-6865-4722-9e6b-696361645f70,rev?*%
%TF.SameCoordinates,Original*%
%TF.FileFunction,AssemblyDrawing,Top*%
%FSLAX46Y46*%
G04 Gerber Fmt 4.6, Leading zero omitted, Abs format (unit mm)*
G04 Created by KiCad (PCBNEW (5.1.12-1-10_14)) date 2021-12-21 21:30:39*
%MOMM*%
%LPD*%
G01*
G04 APERTURE LIST*
%ADD10C,0.100000*%
%ADD11C,0.280000*%
%ADD12C,0.127000*%
%ADD13C,0.120000*%
%ADD14C,0.150000*%
%ADD15C,0.015000*%
%ADD16C,0.075000*%
G04 APERTURE END LIST*
D10*
%TO.C,R15*%
X145054000Y-118237400D02*
X147554000Y-118237400D01*
X147554000Y-118237400D02*
X147554000Y-111937400D01*
X147554000Y-111937400D02*
X145054000Y-111937400D01*
X145054000Y-111937400D02*
X145054000Y-118237400D01*
X146304000Y-118897400D02*
X146304000Y-118237400D01*
X146304000Y-111277400D02*
X146304000Y-111937400D01*
%TO.C,R4*%
X149346600Y-118288200D02*
X151846600Y-118288200D01*
X151846600Y-118288200D02*
X151846600Y-111988200D01*
X151846600Y-111988200D02*
X149346600Y-111988200D01*
X149346600Y-111988200D02*
X149346600Y-118288200D01*
X150596600Y-118948200D02*
X150596600Y-118288200D01*
X150596600Y-111328200D02*
X150596600Y-111988200D01*
D11*
%TO.C,U1*%
X128690001Y-73565001D02*
G75*
G03*
X128690001Y-73565001I-140000J0D01*
G01*
X128690001Y-73565001D02*
G75*
G03*
X128690001Y-73565001I-140000J0D01*
G01*
D12*
X129200001Y-120715001D02*
X129200001Y-66315001D01*
X157100001Y-120715001D02*
X129200001Y-120715001D01*
X157100001Y-66315001D02*
X157100001Y-120715001D01*
X129200001Y-66315001D02*
X157100001Y-66315001D01*
D10*
%TO.C,SW1*%
X158699200Y-119659400D02*
X158699200Y-117754400D01*
X158699200Y-117754400D02*
X163779200Y-117754400D01*
X163779200Y-117754400D02*
X163779200Y-120294400D01*
X163779200Y-120294400D02*
X159334200Y-120294400D01*
X159334200Y-120294400D02*
X158699200Y-119659400D01*
%TO.C,J12*%
X169748200Y-66548000D02*
X171653200Y-66548000D01*
X171653200Y-66548000D02*
X172288200Y-67183000D01*
X172288200Y-67183000D02*
X172288200Y-76708000D01*
X172288200Y-76708000D02*
X169748200Y-76708000D01*
X169748200Y-76708000D02*
X169748200Y-66548000D01*
%TO.C,J9*%
X164312600Y-95275400D02*
X166217600Y-95275400D01*
X166217600Y-95275400D02*
X166852600Y-95910400D01*
X166852600Y-95910400D02*
X166852600Y-115595400D01*
X166852600Y-115595400D02*
X164312600Y-115595400D01*
X164312600Y-115595400D02*
X164312600Y-95275400D01*
%TO.C,J8*%
X170002200Y-109448600D02*
X171907200Y-109448600D01*
X171907200Y-109448600D02*
X172542200Y-110083600D01*
X172542200Y-110083600D02*
X172542200Y-119608600D01*
X172542200Y-119608600D02*
X170002200Y-119608600D01*
X170002200Y-119608600D02*
X170002200Y-109448600D01*
%TO.C,J7*%
X172491400Y-107543600D02*
X170586400Y-107543600D01*
X170586400Y-107543600D02*
X169951400Y-106908600D01*
X169951400Y-106908600D02*
X169951400Y-94843600D01*
X169951400Y-94843600D02*
X172491400Y-94843600D01*
X172491400Y-94843600D02*
X172491400Y-107543600D01*
%TO.C,J6*%
X169799000Y-78105000D02*
X171704000Y-78105000D01*
X171704000Y-78105000D02*
X172339000Y-78740000D01*
X172339000Y-78740000D02*
X172339000Y-88265000D01*
X172339000Y-88265000D02*
X169799000Y-88265000D01*
X169799000Y-88265000D02*
X169799000Y-78105000D01*
%TO.C,J4*%
X159105600Y-95123000D02*
X161010600Y-95123000D01*
X161010600Y-95123000D02*
X161645600Y-95758000D01*
X161645600Y-95758000D02*
X161645600Y-115443000D01*
X161645600Y-115443000D02*
X159105600Y-115443000D01*
X159105600Y-115443000D02*
X159105600Y-95123000D01*
%TO.C,J1*%
X159544600Y-127969200D02*
X162854600Y-127969200D01*
X159164600Y-127969200D02*
X159544600Y-127969200D01*
X163234600Y-127969200D02*
X162854600Y-127969200D01*
X162854600Y-127579200D02*
X159544600Y-127579200D01*
X163794600Y-127579200D02*
X162854600Y-127579200D01*
X157844600Y-127579200D02*
X159544600Y-127579200D01*
X154544600Y-127579200D02*
X157844600Y-127579200D01*
X153604600Y-127579200D02*
X154544600Y-127579200D01*
X157844600Y-127969200D02*
X154544600Y-127969200D01*
X158224600Y-127969200D02*
X157844600Y-127969200D01*
X154164600Y-127969200D02*
X154544600Y-127969200D01*
X154694600Y-123899200D02*
X157744600Y-123269200D01*
X154564600Y-123769200D02*
X157624600Y-123139200D01*
X159704600Y-123899200D02*
X162744600Y-123269200D01*
X159574600Y-123769200D02*
X162624600Y-123139200D01*
X158224600Y-122249200D02*
X154164600Y-122249200D01*
X154164600Y-124789200D02*
X154164600Y-122249200D01*
X158224600Y-124789200D02*
X154164600Y-124789200D01*
X158224600Y-124789200D02*
X158224600Y-122249200D01*
X163234600Y-124789200D02*
X159164600Y-124789200D01*
X163234600Y-122249200D02*
X163234600Y-124789200D01*
X159164600Y-122249200D02*
X163234600Y-122249200D01*
X159164600Y-124789200D02*
X159164600Y-122249200D01*
X163794600Y-125049200D02*
X163794600Y-126569200D01*
X153604600Y-125049200D02*
X153604600Y-121999200D01*
X153604600Y-125049200D02*
X163794600Y-125049200D01*
X163794600Y-127579200D02*
X163794600Y-132279200D01*
X163794600Y-126569200D02*
X163794600Y-127579200D01*
X153604600Y-127579200D02*
X153604600Y-125049200D01*
X153604600Y-134439200D02*
X153604600Y-127579200D01*
X162854600Y-128729200D02*
X162464600Y-128729200D01*
X159544600Y-128729200D02*
X159924600Y-128729200D01*
X157844600Y-128729200D02*
X157464600Y-128729200D01*
X154544600Y-128729200D02*
X154924600Y-128729200D01*
X154544600Y-131899200D02*
X154544600Y-128729200D01*
X157844600Y-131899200D02*
X154544600Y-131899200D01*
X157844600Y-131899200D02*
X157844600Y-128729200D01*
X159544600Y-131899200D02*
X159544600Y-128729200D01*
X162854600Y-131899200D02*
X159544600Y-131899200D01*
X162854600Y-131899200D02*
X162854600Y-128729200D01*
X154164600Y-132539200D02*
X154164600Y-134439200D01*
X158224600Y-132539200D02*
X158224600Y-127969200D01*
X158224600Y-132539200D02*
X154164600Y-132539200D01*
X163234600Y-132539200D02*
X163234600Y-134439200D01*
X159164600Y-132539200D02*
X159164600Y-127969200D01*
X159164600Y-132539200D02*
X163234600Y-132539200D01*
X154164600Y-134439200D02*
X158224600Y-134439200D01*
X153604600Y-134439200D02*
X154164600Y-134439200D01*
X154164600Y-127969200D02*
X154164600Y-132539200D01*
X158224600Y-134439200D02*
X159164600Y-134439200D01*
X158224600Y-134439200D02*
X158224600Y-132539200D01*
X163234600Y-134439200D02*
X163794600Y-134439200D01*
X159164600Y-134439200D02*
X163234600Y-134439200D01*
X163234600Y-127969200D02*
X163234600Y-132539200D01*
X159164600Y-134439200D02*
X159164600Y-132539200D01*
X164294600Y-132029200D02*
X164294600Y-133679200D01*
X163794600Y-132279200D02*
X163794600Y-133429200D01*
X164294600Y-132029200D02*
X163794600Y-132279200D01*
X163794600Y-133429200D02*
X163794600Y-134439200D01*
X164294600Y-133679200D02*
X163794600Y-133429200D01*
X164294600Y-126819200D02*
X163794600Y-126569200D01*
X164294600Y-121999200D02*
X164294600Y-126819200D01*
X163794600Y-121999200D02*
X164294600Y-121999200D01*
X163794600Y-121999200D02*
X153604600Y-121999200D01*
X163794600Y-121999200D02*
X163794600Y-125049200D01*
X159924600Y-130759200D02*
X159924600Y-127969200D01*
X159924600Y-127969200D02*
X162464600Y-127969200D01*
X162464600Y-130759200D02*
X162464600Y-127969200D01*
X159924600Y-130759200D02*
X162464600Y-130759200D01*
X154924600Y-130759200D02*
X154924600Y-127969200D01*
X154924600Y-127969200D02*
X157464600Y-127969200D01*
X157464600Y-130759200D02*
X157464600Y-127969200D01*
X154924600Y-130759200D02*
X157464600Y-130759200D01*
X162670132Y-124143195D02*
G75*
G03*
X162724600Y-123169200I-455532J513995D01*
G01*
X159732267Y-124050937D02*
G75*
G03*
X162714600Y-124099200I1522333J1901737D01*
G01*
X162722839Y-123157513D02*
G75*
G03*
X159574600Y-123219200I-1548239J-1351687D01*
G01*
X159621628Y-123160501D02*
G75*
G03*
X159764600Y-124089200I432972J-408699D01*
G01*
X157670220Y-124133196D02*
G75*
G03*
X157714600Y-123169200I-455620J503996D01*
G01*
X154724771Y-124060618D02*
G75*
G03*
X157714600Y-124099200I1519829J1911418D01*
G01*
X157724576Y-123147666D02*
G75*
G03*
X154564600Y-123219200I-1549976J-1361534D01*
G01*
X154621628Y-123160501D02*
G75*
G03*
X154764600Y-124089200I432972J-408699D01*
G01*
%TO.C,C6*%
X144649200Y-127366400D02*
G75*
G03*
X144649200Y-127366400I-5000000J0D01*
G01*
X141836700Y-123077539D02*
X141836700Y-124077539D01*
X142336700Y-123577539D02*
X141336700Y-123577539D01*
%TO.C,D5*%
X150702000Y-125314400D02*
X148002000Y-125314400D01*
X148002000Y-125314400D02*
X148002000Y-130514400D01*
X148002000Y-130514400D02*
X150702000Y-130514400D01*
X150702000Y-130514400D02*
X150702000Y-125314400D01*
X149352000Y-122834400D02*
X149352000Y-125314400D01*
X149352000Y-132994400D02*
X149352000Y-130514400D01*
X150702000Y-126094400D02*
X148002000Y-126094400D01*
X150702000Y-126194400D02*
X148002000Y-126194400D01*
X150702000Y-125994400D02*
X148002000Y-125994400D01*
%TO.C,C4*%
X145199300Y-88430000D02*
X141999300Y-88430000D01*
X145199300Y-86830000D02*
X145199300Y-88430000D01*
X141999300Y-86830000D02*
X145199300Y-86830000D01*
X141999300Y-88430000D02*
X141999300Y-86830000D01*
%TO.C,C3*%
X145199300Y-94780000D02*
X141999300Y-94780000D01*
X145199300Y-93180000D02*
X145199300Y-94780000D01*
X141999300Y-93180000D02*
X145199300Y-93180000D01*
X141999300Y-94780000D02*
X141999300Y-93180000D01*
%TO.C,C2*%
X148806500Y-92341800D02*
X152006500Y-92341800D01*
X148806500Y-93941800D02*
X148806500Y-92341800D01*
X152006500Y-93941800D02*
X148806500Y-93941800D01*
X152006500Y-92341800D02*
X152006500Y-93941800D01*
D13*
%TO.C,L1*%
X123555200Y-120879400D02*
X123555200Y-131454400D01*
X112055200Y-120954400D02*
X112055200Y-131454400D01*
X112055200Y-131454400D02*
X123555200Y-131454400D01*
X123555200Y-120954400D02*
X112055200Y-120954400D01*
%TO.C,J11*%
X167347400Y-80374800D02*
G75*
G03*
X167347400Y-80374800I-4000000J0D01*
G01*
%TO.C,J5*%
X167271200Y-89163200D02*
G75*
G03*
X167271200Y-89163200I-4000000J0D01*
G01*
D10*
%TO.C,D4*%
X111489800Y-120425400D02*
X106289800Y-120425400D01*
X111489800Y-120625400D02*
X106289800Y-120625400D01*
X111489800Y-120525400D02*
X106289800Y-120525400D01*
X108889800Y-131470400D02*
X108889800Y-128600400D01*
X108889800Y-116230400D02*
X108889800Y-119100400D01*
X111489800Y-128600400D02*
X111489800Y-119100400D01*
X106289800Y-128600400D02*
X111489800Y-128600400D01*
X106289800Y-119100400D02*
X106289800Y-128600400D01*
X111489800Y-119100400D02*
X106289800Y-119100400D01*
%TO.C,C7*%
X121830900Y-113804800D02*
X125030900Y-113804800D01*
X121830900Y-115404800D02*
X121830900Y-113804800D01*
X125030900Y-115404800D02*
X121830900Y-115404800D01*
X125030900Y-113804800D02*
X125030900Y-115404800D01*
%TO.C,C5*%
X130493700Y-124300841D02*
X129693700Y-124300841D01*
X130093700Y-123900841D02*
X130093700Y-124700841D01*
X132346200Y-127327600D02*
G75*
G03*
X132346200Y-127327600I-4000000J0D01*
G01*
%TO.C,C1*%
X146926200Y-97676300D02*
X146926200Y-100876300D01*
X145326200Y-97676300D02*
X146926200Y-97676300D01*
X145326200Y-100876300D02*
X145326200Y-97676300D01*
X146926200Y-100876300D02*
X145326200Y-100876300D01*
%TO.C,D1*%
X137590000Y-94930000D02*
X137590000Y-92480000D01*
X137040000Y-95500000D02*
X136190000Y-95500000D01*
X137590000Y-94930000D02*
X137040000Y-95500000D01*
X136190000Y-95500000D02*
X136190000Y-92460000D01*
X137590000Y-92460000D02*
X136190000Y-92460000D01*
%TO.C,D2*%
X137590000Y-86110000D02*
X136190000Y-86110000D01*
X136190000Y-89150000D02*
X136190000Y-86110000D01*
X137590000Y-88580000D02*
X137040000Y-89150000D01*
X137040000Y-89150000D02*
X136190000Y-89150000D01*
X137590000Y-88580000D02*
X137590000Y-86130000D01*
%TO.C,D3*%
X137590000Y-79760000D02*
X136190000Y-79760000D01*
X136190000Y-82800000D02*
X136190000Y-79760000D01*
X137590000Y-82230000D02*
X137040000Y-82800000D01*
X137040000Y-82800000D02*
X136190000Y-82800000D01*
X137590000Y-82230000D02*
X137590000Y-79780000D01*
%TO.C,J2*%
X108960000Y-80390000D02*
X125210000Y-80390000D01*
X126960000Y-80390000D02*
X126960000Y-93590000D01*
X126960000Y-93590000D02*
X108960000Y-93590000D01*
X108960000Y-93590000D02*
X108960000Y-80390000D01*
X125210000Y-80390000D02*
X125710000Y-80890000D01*
X125710000Y-80890000D02*
X126210000Y-80390000D01*
X126210000Y-80390000D02*
X126960000Y-80390000D01*
%TO.C,J3*%
X126210000Y-95630000D02*
X126960000Y-95630000D01*
X125710000Y-96130000D02*
X126210000Y-95630000D01*
X125210000Y-95630000D02*
X125710000Y-96130000D01*
X108960000Y-108830000D02*
X108960000Y-95630000D01*
X126960000Y-108830000D02*
X108960000Y-108830000D01*
X126960000Y-95630000D02*
X126960000Y-108830000D01*
X108960000Y-95630000D02*
X125210000Y-95630000D01*
%TO.C,J10*%
X119639200Y-71735600D02*
X116339200Y-71735600D01*
X120019200Y-71735600D02*
X119639200Y-71735600D01*
X115959200Y-71735600D02*
X116339200Y-71735600D01*
X121339200Y-71735600D02*
X124649200Y-71735600D01*
X120959200Y-71735600D02*
X121339200Y-71735600D01*
X125029200Y-71735600D02*
X124649200Y-71735600D01*
X124489200Y-75805600D02*
X121449200Y-76435600D01*
X124619200Y-75935600D02*
X121569200Y-76565600D01*
X119489200Y-75805600D02*
X116439200Y-76435600D01*
X119619200Y-75935600D02*
X116569200Y-76565600D01*
X120959200Y-77455600D02*
X125029200Y-77455600D01*
X125029200Y-74915600D02*
X125029200Y-77455600D01*
X120959200Y-74915600D02*
X125029200Y-74915600D01*
X120959200Y-74915600D02*
X120959200Y-77455600D01*
X115959200Y-74915600D02*
X120019200Y-74915600D01*
X115959200Y-77455600D02*
X115959200Y-74915600D01*
X120019200Y-77455600D02*
X115959200Y-77455600D01*
X120019200Y-74915600D02*
X120019200Y-77455600D01*
X125559200Y-74665600D02*
X125559200Y-77705600D01*
X125559200Y-74665600D02*
X115399200Y-74665600D01*
X125559200Y-72125600D02*
X125559200Y-74665600D01*
X125559200Y-65265600D02*
X125559200Y-72125600D01*
X116339200Y-70975600D02*
X116719200Y-70975600D01*
X119639200Y-70975600D02*
X119259200Y-70975600D01*
X121339200Y-70975600D02*
X121719200Y-70975600D01*
X124649200Y-70975600D02*
X124259200Y-70975600D01*
X124649200Y-67805600D02*
X124649200Y-70975600D01*
X121339200Y-67805600D02*
X124649200Y-67805600D01*
X121339200Y-67805600D02*
X121339200Y-70975600D01*
X119639200Y-67805600D02*
X119639200Y-70975600D01*
X116339200Y-67805600D02*
X119639200Y-67805600D01*
X116339200Y-67805600D02*
X116339200Y-70975600D01*
X125029200Y-67165600D02*
X125029200Y-65265600D01*
X120959200Y-67165600D02*
X120959200Y-71735600D01*
X120959200Y-67165600D02*
X125029200Y-67165600D01*
X115959200Y-67165600D02*
X115959200Y-65265600D01*
X120019200Y-67165600D02*
X120019200Y-71735600D01*
X120019200Y-67165600D02*
X115959200Y-67165600D01*
X125029200Y-65265600D02*
X120959200Y-65265600D01*
X125559200Y-65265600D02*
X125029200Y-65265600D01*
X125029200Y-71735600D02*
X125029200Y-67165600D01*
X120959200Y-65265600D02*
X120019200Y-65265600D01*
X120959200Y-65265600D02*
X120959200Y-67165600D01*
X115959200Y-65265600D02*
X115399200Y-65265600D01*
X120019200Y-65265600D02*
X115959200Y-65265600D01*
X115959200Y-71735600D02*
X115959200Y-67165600D01*
X120019200Y-65265600D02*
X120019200Y-67165600D01*
X114959200Y-67425600D02*
X114959200Y-66275600D01*
X114959200Y-66275600D02*
X114959200Y-65265600D01*
X119259200Y-68945600D02*
X119259200Y-71735600D01*
X119259200Y-71735600D02*
X116719200Y-71735600D01*
X116719200Y-68945600D02*
X116719200Y-71735600D01*
X119259200Y-68945600D02*
X116719200Y-68945600D01*
X124259200Y-68945600D02*
X124259200Y-71735600D01*
X124259200Y-71735600D02*
X121719200Y-71735600D01*
X121719200Y-68945600D02*
X121719200Y-71735600D01*
X124259200Y-68945600D02*
X121719200Y-68945600D01*
X114179200Y-68945600D02*
X111639200Y-68945600D01*
X111639200Y-68945600D02*
X111639200Y-71735600D01*
X114179200Y-71735600D02*
X111639200Y-71735600D01*
X114179200Y-68945600D02*
X114179200Y-71735600D01*
X110319200Y-77705600D02*
X110319200Y-74665600D01*
X110319200Y-77705600D02*
X109809200Y-77705600D01*
X109809200Y-77705600D02*
X109809200Y-72885600D01*
X109809200Y-72885600D02*
X110319200Y-73135600D01*
X109809200Y-66025600D02*
X110319200Y-66275600D01*
X110319200Y-66275600D02*
X110319200Y-65265600D01*
X109809200Y-67675600D02*
X110319200Y-67425600D01*
X110319200Y-67425600D02*
X110319200Y-66275600D01*
X109809200Y-67675600D02*
X109809200Y-66025600D01*
X114939200Y-65265600D02*
X114939200Y-67165600D01*
X110879200Y-71735600D02*
X110879200Y-67165600D01*
X110879200Y-65265600D02*
X110319200Y-65265600D01*
X114939200Y-67165600D02*
X110879200Y-67165600D01*
X110879200Y-67165600D02*
X110879200Y-65265600D01*
X111259200Y-67805600D02*
X111259200Y-70975600D01*
X111259200Y-67805600D02*
X114559200Y-67805600D01*
X114559200Y-67805600D02*
X114559200Y-70975600D01*
X114559200Y-70975600D02*
X114179200Y-70975600D01*
X111259200Y-70975600D02*
X111639200Y-70975600D01*
X110319200Y-73135600D02*
X110319200Y-72125600D01*
X110319200Y-72125600D02*
X110319200Y-67425600D01*
X110319200Y-74665600D02*
X110319200Y-73135600D01*
X114939200Y-74915600D02*
X114939200Y-77455600D01*
X114939200Y-77455600D02*
X110879200Y-77455600D01*
X110879200Y-77455600D02*
X110879200Y-74915600D01*
X110879200Y-74915600D02*
X114939200Y-74915600D01*
X114539200Y-75935600D02*
X111489200Y-76565600D01*
X114409200Y-75805600D02*
X111359200Y-76435600D01*
X110879200Y-71735600D02*
X111259200Y-71735600D01*
X114939200Y-71735600D02*
X114559200Y-71735600D01*
X114559200Y-71735600D02*
X111259200Y-71735600D01*
X125559200Y-77705600D02*
X110319200Y-77705600D01*
X115399200Y-74665600D02*
X110379200Y-74665600D01*
X110889200Y-65265600D02*
X115399200Y-65265600D01*
X114959200Y-67485600D02*
X114959200Y-71735600D01*
X110319200Y-72125600D02*
X125499200Y-72125600D01*
X114482172Y-76544299D02*
G75*
G03*
X114339200Y-75615600I-432972J408699D01*
G01*
X111390961Y-76547287D02*
G75*
G03*
X114539200Y-76485600I1548239J1351687D01*
G01*
X114381533Y-75653863D02*
G75*
G03*
X111399200Y-75605600I-1522333J-1901737D01*
G01*
X111433580Y-75571604D02*
G75*
G03*
X111389200Y-76535600I455620J-503996D01*
G01*
X116513580Y-75571604D02*
G75*
G03*
X116469200Y-76535600I455620J-503996D01*
G01*
X119461533Y-75653863D02*
G75*
G03*
X116479200Y-75605600I-1522333J-1901737D01*
G01*
X116470961Y-76547287D02*
G75*
G03*
X119619200Y-76485600I1548239J1351687D01*
G01*
X119562172Y-76544299D02*
G75*
G03*
X119419200Y-75615600I-432972J408699D01*
G01*
X121523668Y-75561605D02*
G75*
G03*
X121469200Y-76535600I455532J-513995D01*
G01*
X124461533Y-75653863D02*
G75*
G03*
X121479200Y-75605600I-1522333J-1901737D01*
G01*
X121470961Y-76547287D02*
G75*
G03*
X124619200Y-76485600I1548239J1351687D01*
G01*
X124574626Y-76534605D02*
G75*
G03*
X124419200Y-75615600I-435426J399005D01*
G01*
%TO.C,R1*%
X138556200Y-97015400D02*
X138556200Y-98615400D01*
X138556200Y-98615400D02*
X135356200Y-98615400D01*
X135356200Y-98615400D02*
X135356200Y-97015400D01*
X135356200Y-97015400D02*
X138556200Y-97015400D01*
%TO.C,R2*%
X135078000Y-72936000D02*
X135078000Y-71336000D01*
X135078000Y-71336000D02*
X138278000Y-71336000D01*
X138278000Y-71336000D02*
X138278000Y-72936000D01*
X138278000Y-72936000D02*
X135078000Y-72936000D01*
%TO.C,R3*%
X135078000Y-77000000D02*
X135078000Y-75400000D01*
X135078000Y-75400000D02*
X138278000Y-75400000D01*
X138278000Y-75400000D02*
X138278000Y-77000000D01*
X138278000Y-77000000D02*
X135078000Y-77000000D01*
%TO.C,R5*%
X143167000Y-97663800D02*
X143167000Y-100863800D01*
X141567000Y-97663800D02*
X143167000Y-97663800D01*
X141567000Y-100863800D02*
X141567000Y-97663800D01*
X143167000Y-100863800D02*
X141567000Y-100863800D01*
%TO.C,R6*%
X137637200Y-118339000D02*
X140137200Y-118339000D01*
X140137200Y-118339000D02*
X140137200Y-112039000D01*
X140137200Y-112039000D02*
X137637200Y-112039000D01*
X137637200Y-112039000D02*
X137637200Y-118339000D01*
X138887200Y-118999000D02*
X138887200Y-118339000D01*
X138887200Y-111379000D02*
X138887200Y-112039000D01*
%TO.C,R7*%
X134493000Y-118999000D02*
X134493000Y-118339000D01*
X134493000Y-111379000D02*
X134493000Y-112039000D01*
X135743000Y-118339000D02*
X135743000Y-112039000D01*
X133243000Y-118339000D02*
X135743000Y-118339000D01*
X133243000Y-112039000D02*
X133243000Y-118339000D01*
X135743000Y-112039000D02*
X133243000Y-112039000D01*
%TO.C,R8*%
X143281000Y-69430800D02*
X143281000Y-67830800D01*
X143281000Y-67830800D02*
X146481000Y-67830800D01*
X146481000Y-67830800D02*
X146481000Y-69430800D01*
X146481000Y-69430800D02*
X143281000Y-69430800D01*
%TO.C,R9*%
X146684200Y-72885400D02*
X146684200Y-74485400D01*
X146684200Y-74485400D02*
X143484200Y-74485400D01*
X143484200Y-74485400D02*
X143484200Y-72885400D01*
X143484200Y-72885400D02*
X146684200Y-72885400D01*
%TO.C,R10*%
X149505200Y-72860000D02*
X152705200Y-72860000D01*
X149505200Y-74460000D02*
X149505200Y-72860000D01*
X152705200Y-74460000D02*
X149505200Y-74460000D01*
X152705200Y-72860000D02*
X152705200Y-74460000D01*
%TO.C,R11*%
X152627800Y-105016200D02*
X149427800Y-105016200D01*
X152627800Y-103416200D02*
X152627800Y-105016200D01*
X149427800Y-103416200D02*
X152627800Y-103416200D01*
X149427800Y-105016200D02*
X149427800Y-103416200D01*
%TO.C,U2*%
X146750600Y-79933000D02*
X146750600Y-81433000D01*
X142250600Y-78933000D02*
X145750600Y-78933000D01*
X142250600Y-81433000D02*
X142250600Y-78933000D01*
X146750600Y-81433000D02*
X142250600Y-81433000D01*
X145750600Y-78933000D02*
X146750600Y-79933000D01*
%TD*%
%TO.C,H3*%
D14*
X168660866Y-131576180D02*
X168660866Y-130576180D01*
X168994200Y-131290466D01*
X169327533Y-130576180D01*
X169327533Y-131576180D01*
X169803723Y-131576180D02*
X169803723Y-130576180D01*
X170184676Y-130576180D01*
X170279914Y-130623800D01*
X170327533Y-130671419D01*
X170375152Y-130766657D01*
X170375152Y-130909514D01*
X170327533Y-131004752D01*
X170279914Y-131052371D01*
X170184676Y-131099990D01*
X169803723Y-131099990D01*
X169032295Y-127376180D02*
X169032295Y-126376180D01*
X169032295Y-126852371D02*
X169603723Y-126852371D01*
X169603723Y-127376180D02*
X169603723Y-126376180D01*
X169984676Y-126376180D02*
X170603723Y-126376180D01*
X170270390Y-126757133D01*
X170413247Y-126757133D01*
X170508485Y-126804752D01*
X170556104Y-126852371D01*
X170603723Y-126947609D01*
X170603723Y-127185704D01*
X170556104Y-127280942D01*
X170508485Y-127328561D01*
X170413247Y-127376180D01*
X170127533Y-127376180D01*
X170032295Y-127328561D01*
X169984676Y-127280942D01*
%TO.C,R15*%
X149031142Y-115563590D02*
X149078761Y-115515971D01*
X149126380Y-115563590D01*
X149078761Y-115611209D01*
X149031142Y-115563590D01*
X149126380Y-115563590D01*
X148174000Y-115754066D02*
X148126380Y-115658828D01*
X148126380Y-115420733D01*
X148174000Y-115325495D01*
X148269238Y-115277876D01*
X148364476Y-115277876D01*
X148459714Y-115325495D01*
X148507333Y-115373114D01*
X148554952Y-115468352D01*
X148602571Y-115515971D01*
X148697809Y-115563590D01*
X148745428Y-115563590D01*
X149031142Y-114706447D02*
X149078761Y-114658828D01*
X149126380Y-114706447D01*
X149078761Y-114754066D01*
X149031142Y-114706447D01*
X149126380Y-114706447D01*
X148174000Y-114896923D02*
X148126380Y-114801685D01*
X148126380Y-114563590D01*
X148174000Y-114468352D01*
X148269238Y-114420733D01*
X148364476Y-114420733D01*
X148459714Y-114468352D01*
X148507333Y-114515971D01*
X148554952Y-114611209D01*
X148602571Y-114658828D01*
X148697809Y-114706447D01*
X148745428Y-114706447D01*
X146756380Y-115730257D02*
X146280190Y-116063590D01*
X146756380Y-116301685D02*
X145756380Y-116301685D01*
X145756380Y-115920733D01*
X145804000Y-115825495D01*
X145851619Y-115777876D01*
X145946857Y-115730257D01*
X146089714Y-115730257D01*
X146184952Y-115777876D01*
X146232571Y-115825495D01*
X146280190Y-115920733D01*
X146280190Y-116301685D01*
X146756380Y-114777876D02*
X146756380Y-115349304D01*
X146756380Y-115063590D02*
X145756380Y-115063590D01*
X145899238Y-115158828D01*
X145994476Y-115254066D01*
X146042095Y-115349304D01*
X145756380Y-113873114D02*
X145756380Y-114349304D01*
X146232571Y-114396923D01*
X146184952Y-114349304D01*
X146137333Y-114254066D01*
X146137333Y-114015971D01*
X146184952Y-113920733D01*
X146232571Y-113873114D01*
X146327809Y-113825495D01*
X146565904Y-113825495D01*
X146661142Y-113873114D01*
X146708761Y-113920733D01*
X146756380Y-114015971D01*
X146756380Y-114254066D01*
X146708761Y-114349304D01*
X146661142Y-114396923D01*
%TO.C,R4*%
X153323742Y-115614390D02*
X153371361Y-115566771D01*
X153418980Y-115614390D01*
X153371361Y-115662009D01*
X153323742Y-115614390D01*
X153418980Y-115614390D01*
X152466600Y-115804866D02*
X152418980Y-115709628D01*
X152418980Y-115471533D01*
X152466600Y-115376295D01*
X152561838Y-115328676D01*
X152657076Y-115328676D01*
X152752314Y-115376295D01*
X152799933Y-115423914D01*
X152847552Y-115519152D01*
X152895171Y-115566771D01*
X152990409Y-115614390D01*
X153038028Y-115614390D01*
X153323742Y-114757247D02*
X153371361Y-114709628D01*
X153418980Y-114757247D01*
X153371361Y-114804866D01*
X153323742Y-114757247D01*
X153418980Y-114757247D01*
X152466600Y-114947723D02*
X152418980Y-114852485D01*
X152418980Y-114614390D01*
X152466600Y-114519152D01*
X152561838Y-114471533D01*
X152657076Y-114471533D01*
X152752314Y-114519152D01*
X152799933Y-114566771D01*
X152847552Y-114662009D01*
X152895171Y-114709628D01*
X152990409Y-114757247D01*
X153038028Y-114757247D01*
X151048980Y-115304866D02*
X150572790Y-115638200D01*
X151048980Y-115876295D02*
X150048980Y-115876295D01*
X150048980Y-115495342D01*
X150096600Y-115400104D01*
X150144219Y-115352485D01*
X150239457Y-115304866D01*
X150382314Y-115304866D01*
X150477552Y-115352485D01*
X150525171Y-115400104D01*
X150572790Y-115495342D01*
X150572790Y-115876295D01*
X150382314Y-114447723D02*
X151048980Y-114447723D01*
X150001361Y-114685819D02*
X150715647Y-114923914D01*
X150715647Y-114304866D01*
%TO.C,U1*%
D15*
X136549826Y-121688032D02*
X136883508Y-121688032D01*
X137026515Y-122212390D02*
X136549826Y-122212390D01*
X136549826Y-121211343D01*
X137026515Y-121211343D01*
X137407866Y-122164721D02*
X137550873Y-122212390D01*
X137789217Y-122212390D01*
X137884555Y-122164721D01*
X137932224Y-122117052D01*
X137979893Y-122021714D01*
X137979893Y-121926377D01*
X137932224Y-121831039D01*
X137884555Y-121783370D01*
X137789217Y-121735701D01*
X137598542Y-121688032D01*
X137503204Y-121640363D01*
X137455535Y-121592694D01*
X137407866Y-121497357D01*
X137407866Y-121402019D01*
X137455535Y-121306681D01*
X137503204Y-121259012D01*
X137598542Y-121211343D01*
X137836886Y-121211343D01*
X137979893Y-121259012D01*
X138408913Y-122212390D02*
X138408913Y-121211343D01*
X138790264Y-121211343D01*
X138885602Y-121259012D01*
X138933271Y-121306681D01*
X138980940Y-121402019D01*
X138980940Y-121545025D01*
X138933271Y-121640363D01*
X138885602Y-121688032D01*
X138790264Y-121735701D01*
X138408913Y-121735701D01*
X139314622Y-121211343D02*
X139934318Y-121211343D01*
X139600636Y-121592694D01*
X139743642Y-121592694D01*
X139838980Y-121640363D01*
X139886649Y-121688032D01*
X139934318Y-121783370D01*
X139934318Y-122021714D01*
X139886649Y-122117052D01*
X139838980Y-122164721D01*
X139743642Y-122212390D01*
X139457629Y-122212390D01*
X139362291Y-122164721D01*
X139314622Y-122117052D01*
X140315669Y-121306681D02*
X140363338Y-121259012D01*
X140458676Y-121211343D01*
X140697020Y-121211343D01*
X140792358Y-121259012D01*
X140840027Y-121306681D01*
X140887696Y-121402019D01*
X140887696Y-121497357D01*
X140840027Y-121640363D01*
X140268000Y-122212390D01*
X140887696Y-122212390D01*
X141316716Y-121831039D02*
X142079419Y-121831039D01*
X142556108Y-122212390D02*
X142556108Y-121211343D01*
X142794452Y-121211343D01*
X142937459Y-121259012D01*
X143032797Y-121354350D01*
X143080466Y-121449688D01*
X143128135Y-121640363D01*
X143128135Y-121783370D01*
X143080466Y-121974046D01*
X143032797Y-122069383D01*
X142937459Y-122164721D01*
X142794452Y-122212390D01*
X142556108Y-122212390D01*
X143557155Y-121688032D02*
X143890837Y-121688032D01*
X144033844Y-122212390D02*
X143557155Y-122212390D01*
X143557155Y-121211343D01*
X144033844Y-121211343D01*
X144319857Y-121211343D02*
X144653539Y-122212390D01*
X144987222Y-121211343D01*
X145320904Y-122212390D02*
X145320904Y-121211343D01*
X145892931Y-122212390D02*
X145463911Y-121640363D01*
X145892931Y-121211343D02*
X145320904Y-121783370D01*
X146321951Y-122212390D02*
X146321951Y-121211343D01*
X146655633Y-121211343D02*
X147227660Y-121211343D01*
X146941647Y-122212390D02*
X146941647Y-121211343D01*
X148133370Y-122117052D02*
X148085701Y-122164721D01*
X147942694Y-122212390D01*
X147847356Y-122212390D01*
X147704349Y-122164721D01*
X147609012Y-122069383D01*
X147561343Y-121974046D01*
X147513674Y-121783370D01*
X147513674Y-121640363D01*
X147561343Y-121449688D01*
X147609012Y-121354350D01*
X147704349Y-121259012D01*
X147847356Y-121211343D01*
X147942694Y-121211343D01*
X148085701Y-121259012D01*
X148133370Y-121306681D01*
X148562390Y-121831039D02*
X149325092Y-121831039D01*
X149706443Y-121211343D02*
X150326139Y-121211343D01*
X149992457Y-121592694D01*
X150135464Y-121592694D01*
X150230801Y-121640363D01*
X150278470Y-121688032D01*
X150326139Y-121783370D01*
X150326139Y-122021714D01*
X150278470Y-122117052D01*
X150230801Y-122164721D01*
X150135464Y-122212390D01*
X149849450Y-122212390D01*
X149754112Y-122164721D01*
X149706443Y-122117052D01*
X150707490Y-121306681D02*
X150755159Y-121259012D01*
X150850497Y-121211343D01*
X151088842Y-121211343D01*
X151184179Y-121259012D01*
X151231848Y-121306681D01*
X151279517Y-121402019D01*
X151279517Y-121497357D01*
X151231848Y-121640363D01*
X150659821Y-122212390D01*
X151279517Y-122212390D01*
X151708537Y-122212390D02*
X151708537Y-121211343D01*
X151946882Y-121211343D01*
X152089889Y-121259012D01*
X152185226Y-121354350D01*
X152232895Y-121449688D01*
X152280564Y-121640363D01*
X152280564Y-121783370D01*
X152232895Y-121974046D01*
X152185226Y-122069383D01*
X152089889Y-122164721D01*
X151946882Y-122212390D01*
X151708537Y-122212390D01*
%TO.C,SW1*%
D14*
X165243961Y-122095828D02*
X165291580Y-121952971D01*
X165291580Y-121714876D01*
X165243961Y-121619638D01*
X165196342Y-121572019D01*
X165101104Y-121524400D01*
X165005866Y-121524400D01*
X164910628Y-121572019D01*
X164863009Y-121619638D01*
X164815390Y-121714876D01*
X164767771Y-121905352D01*
X164720152Y-122000590D01*
X164672533Y-122048209D01*
X164577295Y-122095828D01*
X164482057Y-122095828D01*
X164386819Y-122048209D01*
X164339200Y-122000590D01*
X164291580Y-121905352D01*
X164291580Y-121667257D01*
X164339200Y-121524400D01*
X164291580Y-121191066D02*
X165291580Y-120952971D01*
X164577295Y-120762495D01*
X165291580Y-120572019D01*
X164291580Y-120333923D01*
X165386819Y-120191066D02*
X165386819Y-119429161D01*
X165243961Y-119238685D02*
X165291580Y-119095828D01*
X165291580Y-118857733D01*
X165243961Y-118762495D01*
X165196342Y-118714876D01*
X165101104Y-118667257D01*
X165005866Y-118667257D01*
X164910628Y-118714876D01*
X164863009Y-118762495D01*
X164815390Y-118857733D01*
X164767771Y-119048209D01*
X164720152Y-119143447D01*
X164672533Y-119191066D01*
X164577295Y-119238685D01*
X164482057Y-119238685D01*
X164386819Y-119191066D01*
X164339200Y-119143447D01*
X164291580Y-119048209D01*
X164291580Y-118810114D01*
X164339200Y-118667257D01*
X165291580Y-118238685D02*
X164291580Y-118238685D01*
X164291580Y-117857733D01*
X164339200Y-117762495D01*
X164386819Y-117714876D01*
X164482057Y-117667257D01*
X164624914Y-117667257D01*
X164720152Y-117714876D01*
X164767771Y-117762495D01*
X164815390Y-117857733D01*
X164815390Y-118238685D01*
X165243961Y-117286304D02*
X165291580Y-117143447D01*
X165291580Y-116905352D01*
X165243961Y-116810114D01*
X165196342Y-116762495D01*
X165101104Y-116714876D01*
X165005866Y-116714876D01*
X164910628Y-116762495D01*
X164863009Y-116810114D01*
X164815390Y-116905352D01*
X164767771Y-117095828D01*
X164720152Y-117191066D01*
X164672533Y-117238685D01*
X164577295Y-117286304D01*
X164482057Y-117286304D01*
X164386819Y-117238685D01*
X164339200Y-117191066D01*
X164291580Y-117095828D01*
X164291580Y-116857733D01*
X164339200Y-116714876D01*
X164291580Y-116429161D02*
X164291580Y-115857733D01*
X165291580Y-116143447D02*
X164291580Y-116143447D01*
X159905866Y-119429161D02*
X160048723Y-119476780D01*
X160286819Y-119476780D01*
X160382057Y-119429161D01*
X160429676Y-119381542D01*
X160477295Y-119286304D01*
X160477295Y-119191066D01*
X160429676Y-119095828D01*
X160382057Y-119048209D01*
X160286819Y-119000590D01*
X160096342Y-118952971D01*
X160001104Y-118905352D01*
X159953485Y-118857733D01*
X159905866Y-118762495D01*
X159905866Y-118667257D01*
X159953485Y-118572019D01*
X160001104Y-118524400D01*
X160096342Y-118476780D01*
X160334438Y-118476780D01*
X160477295Y-118524400D01*
X160810628Y-118476780D02*
X161048723Y-119476780D01*
X161239200Y-118762495D01*
X161429676Y-119476780D01*
X161667771Y-118476780D01*
X162572533Y-119476780D02*
X162001104Y-119476780D01*
X162286819Y-119476780D02*
X162286819Y-118476780D01*
X162191580Y-118619638D01*
X162096342Y-118714876D01*
X162001104Y-118762495D01*
%TO.C,J12*%
X170470580Y-72437523D02*
X171184866Y-72437523D01*
X171327723Y-72485142D01*
X171422961Y-72580380D01*
X171470580Y-72723238D01*
X171470580Y-72818476D01*
X171470580Y-71437523D02*
X171470580Y-72008952D01*
X171470580Y-71723238D02*
X170470580Y-71723238D01*
X170613438Y-71818476D01*
X170708676Y-71913714D01*
X170756295Y-72008952D01*
X170565819Y-71056571D02*
X170518200Y-71008952D01*
X170470580Y-70913714D01*
X170470580Y-70675619D01*
X170518200Y-70580380D01*
X170565819Y-70532761D01*
X170661057Y-70485142D01*
X170756295Y-70485142D01*
X170899152Y-70532761D01*
X171470580Y-71104190D01*
X171470580Y-70485142D01*
%TO.C,J9*%
X165034980Y-105768733D02*
X165749266Y-105768733D01*
X165892123Y-105816352D01*
X165987361Y-105911590D01*
X166034980Y-106054447D01*
X166034980Y-106149685D01*
X166034980Y-105244923D02*
X166034980Y-105054447D01*
X165987361Y-104959209D01*
X165939742Y-104911590D01*
X165796885Y-104816352D01*
X165606409Y-104768733D01*
X165225457Y-104768733D01*
X165130219Y-104816352D01*
X165082600Y-104863971D01*
X165034980Y-104959209D01*
X165034980Y-105149685D01*
X165082600Y-105244923D01*
X165130219Y-105292542D01*
X165225457Y-105340161D01*
X165463552Y-105340161D01*
X165558790Y-105292542D01*
X165606409Y-105244923D01*
X165654028Y-105149685D01*
X165654028Y-104959209D01*
X165606409Y-104863971D01*
X165558790Y-104816352D01*
X165463552Y-104768733D01*
%TO.C,J8*%
X170724580Y-114861933D02*
X171438866Y-114861933D01*
X171581723Y-114909552D01*
X171676961Y-115004790D01*
X171724580Y-115147647D01*
X171724580Y-115242885D01*
X171153152Y-114242885D02*
X171105533Y-114338123D01*
X171057914Y-114385742D01*
X170962676Y-114433361D01*
X170915057Y-114433361D01*
X170819819Y-114385742D01*
X170772200Y-114338123D01*
X170724580Y-114242885D01*
X170724580Y-114052409D01*
X170772200Y-113957171D01*
X170819819Y-113909552D01*
X170915057Y-113861933D01*
X170962676Y-113861933D01*
X171057914Y-113909552D01*
X171105533Y-113957171D01*
X171153152Y-114052409D01*
X171153152Y-114242885D01*
X171200771Y-114338123D01*
X171248390Y-114385742D01*
X171343628Y-114433361D01*
X171534104Y-114433361D01*
X171629342Y-114385742D01*
X171676961Y-114338123D01*
X171724580Y-114242885D01*
X171724580Y-114052409D01*
X171676961Y-113957171D01*
X171629342Y-113909552D01*
X171534104Y-113861933D01*
X171343628Y-113861933D01*
X171248390Y-113909552D01*
X171200771Y-113957171D01*
X171153152Y-114052409D01*
%TO.C,J7*%
X174467780Y-98564628D02*
X173991590Y-98897961D01*
X174467780Y-99136057D02*
X173467780Y-99136057D01*
X173467780Y-98755104D01*
X173515400Y-98659866D01*
X173563019Y-98612247D01*
X173658257Y-98564628D01*
X173801114Y-98564628D01*
X173896352Y-98612247D01*
X173943971Y-98659866D01*
X173991590Y-98755104D01*
X173991590Y-99136057D01*
X173467780Y-98278914D02*
X173467780Y-97707485D01*
X174467780Y-97993200D02*
X173467780Y-97993200D01*
X174372542Y-96802723D02*
X174420161Y-96850342D01*
X174467780Y-96993200D01*
X174467780Y-97088438D01*
X174420161Y-97231295D01*
X174324923Y-97326533D01*
X174229685Y-97374152D01*
X174039209Y-97421771D01*
X173896352Y-97421771D01*
X173705876Y-97374152D01*
X173610638Y-97326533D01*
X173515400Y-97231295D01*
X173467780Y-97088438D01*
X173467780Y-96993200D01*
X173515400Y-96850342D01*
X173563019Y-96802723D01*
X170673780Y-101526933D02*
X171388066Y-101526933D01*
X171530923Y-101574552D01*
X171626161Y-101669790D01*
X171673780Y-101812647D01*
X171673780Y-101907885D01*
X170673780Y-101145980D02*
X170673780Y-100479314D01*
X171673780Y-100907885D01*
%TO.C,J6*%
X170521380Y-83518333D02*
X171235666Y-83518333D01*
X171378523Y-83565952D01*
X171473761Y-83661190D01*
X171521380Y-83804047D01*
X171521380Y-83899285D01*
X170521380Y-82613571D02*
X170521380Y-82804047D01*
X170569000Y-82899285D01*
X170616619Y-82946904D01*
X170759476Y-83042142D01*
X170949952Y-83089761D01*
X171330904Y-83089761D01*
X171426142Y-83042142D01*
X171473761Y-82994523D01*
X171521380Y-82899285D01*
X171521380Y-82708809D01*
X171473761Y-82613571D01*
X171426142Y-82565952D01*
X171330904Y-82518333D01*
X171092809Y-82518333D01*
X170997571Y-82565952D01*
X170949952Y-82613571D01*
X170902333Y-82708809D01*
X170902333Y-82899285D01*
X170949952Y-82994523D01*
X170997571Y-83042142D01*
X171092809Y-83089761D01*
%TO.C,J4*%
X159827980Y-105616333D02*
X160542266Y-105616333D01*
X160685123Y-105663952D01*
X160780361Y-105759190D01*
X160827980Y-105902047D01*
X160827980Y-105997285D01*
X160161314Y-104711571D02*
X160827980Y-104711571D01*
X159780361Y-104949666D02*
X160494647Y-105187761D01*
X160494647Y-104568714D01*
%TO.C,J1*%
X158351266Y-125671580D02*
X158351266Y-126385866D01*
X158303647Y-126528723D01*
X158208409Y-126623961D01*
X158065552Y-126671580D01*
X157970314Y-126671580D01*
X159351266Y-126671580D02*
X158779838Y-126671580D01*
X159065552Y-126671580D02*
X159065552Y-125671580D01*
X158970314Y-125814438D01*
X158875076Y-125909676D01*
X158779838Y-125957295D01*
%TO.C,C6*%
X133184914Y-130771161D02*
X133851580Y-130771161D01*
X132803961Y-131009257D02*
X133518247Y-131247352D01*
X133518247Y-130628304D01*
X132851580Y-130342590D02*
X132851580Y-129675923D01*
X133851580Y-130104495D01*
X132851580Y-129104495D02*
X132851580Y-129009257D01*
X132899200Y-128914019D01*
X132946819Y-128866400D01*
X133042057Y-128818780D01*
X133232533Y-128771161D01*
X133470628Y-128771161D01*
X133661104Y-128818780D01*
X133756342Y-128866400D01*
X133803961Y-128914019D01*
X133851580Y-129009257D01*
X133851580Y-129104495D01*
X133803961Y-129199733D01*
X133756342Y-129247352D01*
X133661104Y-129294971D01*
X133470628Y-129342590D01*
X133232533Y-129342590D01*
X133042057Y-129294971D01*
X132946819Y-129247352D01*
X132899200Y-129199733D01*
X132851580Y-129104495D01*
X133184914Y-127914019D02*
X133851580Y-127914019D01*
X133184914Y-128342590D02*
X133708723Y-128342590D01*
X133803961Y-128294971D01*
X133851580Y-128199733D01*
X133851580Y-128056876D01*
X133803961Y-127961638D01*
X133756342Y-127914019D01*
X133184914Y-127580685D02*
X133184914Y-127199733D01*
X133851580Y-127437828D02*
X132994438Y-127437828D01*
X132899200Y-127390209D01*
X132851580Y-127294971D01*
X132851580Y-127199733D01*
X132803961Y-126152114D02*
X134089676Y-127009257D01*
X132851580Y-125914019D02*
X132851580Y-125294971D01*
X133232533Y-125628304D01*
X133232533Y-125485447D01*
X133280152Y-125390209D01*
X133327771Y-125342590D01*
X133423009Y-125294971D01*
X133661104Y-125294971D01*
X133756342Y-125342590D01*
X133803961Y-125390209D01*
X133851580Y-125485447D01*
X133851580Y-125771161D01*
X133803961Y-125866400D01*
X133756342Y-125914019D01*
X132851580Y-124390209D02*
X132851580Y-124866400D01*
X133327771Y-124914019D01*
X133280152Y-124866400D01*
X133232533Y-124771161D01*
X133232533Y-124533066D01*
X133280152Y-124437828D01*
X133327771Y-124390209D01*
X133423009Y-124342590D01*
X133661104Y-124342590D01*
X133756342Y-124390209D01*
X133803961Y-124437828D01*
X133851580Y-124533066D01*
X133851580Y-124771161D01*
X133803961Y-124866400D01*
X133756342Y-124914019D01*
X132851580Y-124056876D02*
X133851580Y-123723542D01*
X132851580Y-123390209D01*
X140006342Y-127533066D02*
X140053961Y-127580685D01*
X140101580Y-127723542D01*
X140101580Y-127818780D01*
X140053961Y-127961638D01*
X139958723Y-128056876D01*
X139863485Y-128104495D01*
X139673009Y-128152114D01*
X139530152Y-128152114D01*
X139339676Y-128104495D01*
X139244438Y-128056876D01*
X139149200Y-127961638D01*
X139101580Y-127818780D01*
X139101580Y-127723542D01*
X139149200Y-127580685D01*
X139196819Y-127533066D01*
X139101580Y-126675923D02*
X139101580Y-126866400D01*
X139149200Y-126961638D01*
X139196819Y-127009257D01*
X139339676Y-127104495D01*
X139530152Y-127152114D01*
X139911104Y-127152114D01*
X140006342Y-127104495D01*
X140053961Y-127056876D01*
X140101580Y-126961638D01*
X140101580Y-126771161D01*
X140053961Y-126675923D01*
X140006342Y-126628304D01*
X139911104Y-126580685D01*
X139673009Y-126580685D01*
X139577771Y-126628304D01*
X139530152Y-126675923D01*
X139482533Y-126771161D01*
X139482533Y-126961638D01*
X139530152Y-127056876D01*
X139577771Y-127104495D01*
X139673009Y-127152114D01*
%TO.C,H2*%
X157283971Y-75086580D02*
X157283971Y-74086580D01*
X157617304Y-74800866D01*
X157950638Y-74086580D01*
X157950638Y-75086580D01*
X158569685Y-75086580D02*
X158474447Y-75038961D01*
X158426828Y-74991342D01*
X158379209Y-74896104D01*
X158379209Y-74610390D01*
X158426828Y-74515152D01*
X158474447Y-74467533D01*
X158569685Y-74419914D01*
X158712542Y-74419914D01*
X158807780Y-74467533D01*
X158855400Y-74515152D01*
X158903019Y-74610390D01*
X158903019Y-74896104D01*
X158855400Y-74991342D01*
X158807780Y-75038961D01*
X158712542Y-75086580D01*
X158569685Y-75086580D01*
X159760161Y-74419914D02*
X159760161Y-75086580D01*
X159331590Y-74419914D02*
X159331590Y-74943723D01*
X159379209Y-75038961D01*
X159474447Y-75086580D01*
X159617304Y-75086580D01*
X159712542Y-75038961D01*
X159760161Y-74991342D01*
X160236352Y-74419914D02*
X160236352Y-75086580D01*
X160236352Y-74515152D02*
X160283971Y-74467533D01*
X160379209Y-74419914D01*
X160522066Y-74419914D01*
X160617304Y-74467533D01*
X160664923Y-74562771D01*
X160664923Y-75086580D01*
X160998257Y-74419914D02*
X161379209Y-74419914D01*
X161141114Y-74086580D02*
X161141114Y-74943723D01*
X161188733Y-75038961D01*
X161283971Y-75086580D01*
X161379209Y-75086580D01*
X161712542Y-75086580D02*
X161712542Y-74419914D01*
X161712542Y-74086580D02*
X161664923Y-74134200D01*
X161712542Y-74181819D01*
X161760161Y-74134200D01*
X161712542Y-74086580D01*
X161712542Y-74181819D01*
X162188733Y-74419914D02*
X162188733Y-75086580D01*
X162188733Y-74515152D02*
X162236352Y-74467533D01*
X162331590Y-74419914D01*
X162474447Y-74419914D01*
X162569685Y-74467533D01*
X162617304Y-74562771D01*
X162617304Y-75086580D01*
X163522066Y-74419914D02*
X163522066Y-75229438D01*
X163474447Y-75324676D01*
X163426828Y-75372295D01*
X163331590Y-75419914D01*
X163188733Y-75419914D01*
X163093495Y-75372295D01*
X163522066Y-75038961D02*
X163426828Y-75086580D01*
X163236352Y-75086580D01*
X163141114Y-75038961D01*
X163093495Y-74991342D01*
X163045876Y-74896104D01*
X163045876Y-74610390D01*
X163093495Y-74515152D01*
X163141114Y-74467533D01*
X163236352Y-74419914D01*
X163426828Y-74419914D01*
X163522066Y-74467533D01*
X163998257Y-75086580D02*
X163998257Y-74086580D01*
X163998257Y-74562771D02*
X164569685Y-74562771D01*
X164569685Y-75086580D02*
X164569685Y-74086580D01*
X165188733Y-75086580D02*
X165093495Y-75038961D01*
X165045876Y-74991342D01*
X164998257Y-74896104D01*
X164998257Y-74610390D01*
X165045876Y-74515152D01*
X165093495Y-74467533D01*
X165188733Y-74419914D01*
X165331590Y-74419914D01*
X165426828Y-74467533D01*
X165474447Y-74515152D01*
X165522066Y-74610390D01*
X165522066Y-74896104D01*
X165474447Y-74991342D01*
X165426828Y-75038961D01*
X165331590Y-75086580D01*
X165188733Y-75086580D01*
X166093495Y-75086580D02*
X165998257Y-75038961D01*
X165950638Y-74943723D01*
X165950638Y-74086580D01*
X166855400Y-75038961D02*
X166760161Y-75086580D01*
X166569685Y-75086580D01*
X166474447Y-75038961D01*
X166426828Y-74943723D01*
X166426828Y-74562771D01*
X166474447Y-74467533D01*
X166569685Y-74419914D01*
X166760161Y-74419914D01*
X166855400Y-74467533D01*
X166903019Y-74562771D01*
X166903019Y-74658009D01*
X166426828Y-74753247D01*
X167093495Y-75181819D02*
X167855400Y-75181819D01*
X168093495Y-75086580D02*
X168093495Y-74086580D01*
X168474447Y-74086580D01*
X168569685Y-74134200D01*
X168617304Y-74181819D01*
X168664923Y-74277057D01*
X168664923Y-74419914D01*
X168617304Y-74515152D01*
X168569685Y-74562771D01*
X168474447Y-74610390D01*
X168093495Y-74610390D01*
X169522066Y-75086580D02*
X169522066Y-74562771D01*
X169474447Y-74467533D01*
X169379209Y-74419914D01*
X169188733Y-74419914D01*
X169093495Y-74467533D01*
X169522066Y-75038961D02*
X169426828Y-75086580D01*
X169188733Y-75086580D01*
X169093495Y-75038961D01*
X169045876Y-74943723D01*
X169045876Y-74848485D01*
X169093495Y-74753247D01*
X169188733Y-74705628D01*
X169426828Y-74705628D01*
X169522066Y-74658009D01*
X170426828Y-75086580D02*
X170426828Y-74086580D01*
X170426828Y-75038961D02*
X170331590Y-75086580D01*
X170141114Y-75086580D01*
X170045876Y-75038961D01*
X169998257Y-74991342D01*
X169950638Y-74896104D01*
X169950638Y-74610390D01*
X169998257Y-74515152D01*
X170045876Y-74467533D01*
X170141114Y-74419914D01*
X170331590Y-74419914D01*
X170426828Y-74467533D01*
X163393495Y-70886580D02*
X163393495Y-69886580D01*
X163393495Y-70362771D02*
X163964923Y-70362771D01*
X163964923Y-70886580D02*
X163964923Y-69886580D01*
X164393495Y-69981819D02*
X164441114Y-69934200D01*
X164536352Y-69886580D01*
X164774447Y-69886580D01*
X164869685Y-69934200D01*
X164917304Y-69981819D01*
X164964923Y-70077057D01*
X164964923Y-70172295D01*
X164917304Y-70315152D01*
X164345876Y-70886580D01*
X164964923Y-70886580D01*
%TO.C,H1*%
X120425580Y-120312628D02*
X119425580Y-120312628D01*
X120139866Y-119979295D01*
X119425580Y-119645961D01*
X120425580Y-119645961D01*
X120425580Y-119026914D02*
X120377961Y-119122152D01*
X120330342Y-119169771D01*
X120235104Y-119217390D01*
X119949390Y-119217390D01*
X119854152Y-119169771D01*
X119806533Y-119122152D01*
X119758914Y-119026914D01*
X119758914Y-118884057D01*
X119806533Y-118788819D01*
X119854152Y-118741200D01*
X119949390Y-118693580D01*
X120235104Y-118693580D01*
X120330342Y-118741200D01*
X120377961Y-118788819D01*
X120425580Y-118884057D01*
X120425580Y-119026914D01*
X119758914Y-117836438D02*
X120425580Y-117836438D01*
X119758914Y-118265009D02*
X120282723Y-118265009D01*
X120377961Y-118217390D01*
X120425580Y-118122152D01*
X120425580Y-117979295D01*
X120377961Y-117884057D01*
X120330342Y-117836438D01*
X119758914Y-117360247D02*
X120425580Y-117360247D01*
X119854152Y-117360247D02*
X119806533Y-117312628D01*
X119758914Y-117217390D01*
X119758914Y-117074533D01*
X119806533Y-116979295D01*
X119901771Y-116931676D01*
X120425580Y-116931676D01*
X119758914Y-116598342D02*
X119758914Y-116217390D01*
X119425580Y-116455485D02*
X120282723Y-116455485D01*
X120377961Y-116407866D01*
X120425580Y-116312628D01*
X120425580Y-116217390D01*
X120425580Y-115884057D02*
X119758914Y-115884057D01*
X119425580Y-115884057D02*
X119473200Y-115931676D01*
X119520819Y-115884057D01*
X119473200Y-115836438D01*
X119425580Y-115884057D01*
X119520819Y-115884057D01*
X119758914Y-115407866D02*
X120425580Y-115407866D01*
X119854152Y-115407866D02*
X119806533Y-115360247D01*
X119758914Y-115265009D01*
X119758914Y-115122152D01*
X119806533Y-115026914D01*
X119901771Y-114979295D01*
X120425580Y-114979295D01*
X119758914Y-114074533D02*
X120568438Y-114074533D01*
X120663676Y-114122152D01*
X120711295Y-114169771D01*
X120758914Y-114265009D01*
X120758914Y-114407866D01*
X120711295Y-114503104D01*
X120377961Y-114074533D02*
X120425580Y-114169771D01*
X120425580Y-114360247D01*
X120377961Y-114455485D01*
X120330342Y-114503104D01*
X120235104Y-114550723D01*
X119949390Y-114550723D01*
X119854152Y-114503104D01*
X119806533Y-114455485D01*
X119758914Y-114360247D01*
X119758914Y-114169771D01*
X119806533Y-114074533D01*
X120425580Y-113598342D02*
X119425580Y-113598342D01*
X119901771Y-113598342D02*
X119901771Y-113026914D01*
X120425580Y-113026914D02*
X119425580Y-113026914D01*
X120425580Y-112407866D02*
X120377961Y-112503104D01*
X120330342Y-112550723D01*
X120235104Y-112598342D01*
X119949390Y-112598342D01*
X119854152Y-112550723D01*
X119806533Y-112503104D01*
X119758914Y-112407866D01*
X119758914Y-112265009D01*
X119806533Y-112169771D01*
X119854152Y-112122152D01*
X119949390Y-112074533D01*
X120235104Y-112074533D01*
X120330342Y-112122152D01*
X120377961Y-112169771D01*
X120425580Y-112265009D01*
X120425580Y-112407866D01*
X120425580Y-111503104D02*
X120377961Y-111598342D01*
X120282723Y-111645961D01*
X119425580Y-111645961D01*
X120377961Y-110741200D02*
X120425580Y-110836438D01*
X120425580Y-111026914D01*
X120377961Y-111122152D01*
X120282723Y-111169771D01*
X119901771Y-111169771D01*
X119806533Y-111122152D01*
X119758914Y-111026914D01*
X119758914Y-110836438D01*
X119806533Y-110741200D01*
X119901771Y-110693580D01*
X119997009Y-110693580D01*
X120092247Y-111169771D01*
X120520819Y-110503104D02*
X120520819Y-109741200D01*
X120425580Y-109503104D02*
X119425580Y-109503104D01*
X119425580Y-109122152D01*
X119473200Y-109026914D01*
X119520819Y-108979295D01*
X119616057Y-108931676D01*
X119758914Y-108931676D01*
X119854152Y-108979295D01*
X119901771Y-109026914D01*
X119949390Y-109122152D01*
X119949390Y-109503104D01*
X120425580Y-108074533D02*
X119901771Y-108074533D01*
X119806533Y-108122152D01*
X119758914Y-108217390D01*
X119758914Y-108407866D01*
X119806533Y-108503104D01*
X120377961Y-108074533D02*
X120425580Y-108169771D01*
X120425580Y-108407866D01*
X120377961Y-108503104D01*
X120282723Y-108550723D01*
X120187485Y-108550723D01*
X120092247Y-108503104D01*
X120044628Y-108407866D01*
X120044628Y-108169771D01*
X119997009Y-108074533D01*
X120425580Y-107169771D02*
X119425580Y-107169771D01*
X120377961Y-107169771D02*
X120425580Y-107265009D01*
X120425580Y-107455485D01*
X120377961Y-107550723D01*
X120330342Y-107598342D01*
X120235104Y-107645961D01*
X119949390Y-107645961D01*
X119854152Y-107598342D01*
X119806533Y-107550723D01*
X119758914Y-107455485D01*
X119758914Y-107265009D01*
X119806533Y-107169771D01*
X116225580Y-114203104D02*
X115225580Y-114203104D01*
X115701771Y-114203104D02*
X115701771Y-113631676D01*
X116225580Y-113631676D02*
X115225580Y-113631676D01*
X116225580Y-112631676D02*
X116225580Y-113203104D01*
X116225580Y-112917390D02*
X115225580Y-112917390D01*
X115368438Y-113012628D01*
X115463676Y-113107866D01*
X115511295Y-113203104D01*
%TO.C,D5*%
X147334380Y-130057257D02*
X147334380Y-130628685D01*
X147334380Y-130342971D02*
X146334380Y-130342971D01*
X146477238Y-130438209D01*
X146572476Y-130533447D01*
X146620095Y-130628685D01*
X147334380Y-129628685D02*
X146334380Y-129628685D01*
X147334380Y-129057257D01*
X146334380Y-129057257D01*
X146334380Y-128104876D02*
X146334380Y-128581066D01*
X146810571Y-128628685D01*
X146762952Y-128581066D01*
X146715333Y-128485828D01*
X146715333Y-128247733D01*
X146762952Y-128152495D01*
X146810571Y-128104876D01*
X146905809Y-128057257D01*
X147143904Y-128057257D01*
X147239142Y-128104876D01*
X147286761Y-128152495D01*
X147334380Y-128247733D01*
X147334380Y-128485828D01*
X147286761Y-128581066D01*
X147239142Y-128628685D01*
X146762952Y-127485828D02*
X146715333Y-127581066D01*
X146667714Y-127628685D01*
X146572476Y-127676304D01*
X146524857Y-127676304D01*
X146429619Y-127628685D01*
X146382000Y-127581066D01*
X146334380Y-127485828D01*
X146334380Y-127295352D01*
X146382000Y-127200114D01*
X146429619Y-127152495D01*
X146524857Y-127104876D01*
X146572476Y-127104876D01*
X146667714Y-127152495D01*
X146715333Y-127200114D01*
X146762952Y-127295352D01*
X146762952Y-127485828D01*
X146810571Y-127581066D01*
X146858190Y-127628685D01*
X146953428Y-127676304D01*
X147143904Y-127676304D01*
X147239142Y-127628685D01*
X147286761Y-127581066D01*
X147334380Y-127485828D01*
X147334380Y-127295352D01*
X147286761Y-127200114D01*
X147239142Y-127152495D01*
X147143904Y-127104876D01*
X146953428Y-127104876D01*
X146858190Y-127152495D01*
X146810571Y-127200114D01*
X146762952Y-127295352D01*
X147334380Y-126152495D02*
X147334380Y-126723923D01*
X147334380Y-126438209D02*
X146334380Y-126438209D01*
X146477238Y-126533447D01*
X146572476Y-126628685D01*
X146620095Y-126723923D01*
X147334380Y-125676304D02*
X147334380Y-125485828D01*
X147286761Y-125390590D01*
X147239142Y-125342971D01*
X147096285Y-125247733D01*
X146905809Y-125200114D01*
X146524857Y-125200114D01*
X146429619Y-125247733D01*
X146382000Y-125295352D01*
X146334380Y-125390590D01*
X146334380Y-125581066D01*
X146382000Y-125676304D01*
X146429619Y-125723923D01*
X146524857Y-125771542D01*
X146762952Y-125771542D01*
X146858190Y-125723923D01*
X146905809Y-125676304D01*
X146953428Y-125581066D01*
X146953428Y-125390590D01*
X146905809Y-125295352D01*
X146858190Y-125247733D01*
X146762952Y-125200114D01*
X151904380Y-123096304D02*
X150904380Y-123096304D01*
X151904380Y-122524876D02*
X151332952Y-122953447D01*
X150904380Y-122524876D02*
X151475809Y-123096304D01*
X149804380Y-129042495D02*
X148804380Y-129042495D01*
X148804380Y-128804400D01*
X148852000Y-128661542D01*
X148947238Y-128566304D01*
X149042476Y-128518685D01*
X149232952Y-128471066D01*
X149375809Y-128471066D01*
X149566285Y-128518685D01*
X149661523Y-128566304D01*
X149756761Y-128661542D01*
X149804380Y-128804400D01*
X149804380Y-129042495D01*
X148804380Y-127566304D02*
X148804380Y-128042495D01*
X149280571Y-128090114D01*
X149232952Y-128042495D01*
X149185333Y-127947257D01*
X149185333Y-127709161D01*
X149232952Y-127613923D01*
X149280571Y-127566304D01*
X149375809Y-127518685D01*
X149613904Y-127518685D01*
X149709142Y-127566304D01*
X149756761Y-127613923D01*
X149804380Y-127709161D01*
X149804380Y-127947257D01*
X149756761Y-128042495D01*
X149709142Y-128090114D01*
%TO.C,C4*%
X141575490Y-88932380D02*
X141670728Y-88932380D01*
X141765966Y-88980000D01*
X141813585Y-89027619D01*
X141861204Y-89122857D01*
X141908823Y-89313333D01*
X141908823Y-89551428D01*
X141861204Y-89741904D01*
X141813585Y-89837142D01*
X141765966Y-89884761D01*
X141670728Y-89932380D01*
X141575490Y-89932380D01*
X141480252Y-89884761D01*
X141432633Y-89837142D01*
X141385014Y-89741904D01*
X141337395Y-89551428D01*
X141337395Y-89313333D01*
X141385014Y-89122857D01*
X141432633Y-89027619D01*
X141480252Y-88980000D01*
X141575490Y-88932380D01*
X142337395Y-89837142D02*
X142385014Y-89884761D01*
X142337395Y-89932380D01*
X142289776Y-89884761D01*
X142337395Y-89837142D01*
X142337395Y-89932380D01*
X143337395Y-89932380D02*
X142765966Y-89932380D01*
X143051680Y-89932380D02*
X143051680Y-88932380D01*
X142956442Y-89075238D01*
X142861204Y-89170476D01*
X142765966Y-89218095D01*
X144956442Y-89265714D02*
X144956442Y-89932380D01*
X144527871Y-89265714D02*
X144527871Y-89789523D01*
X144575490Y-89884761D01*
X144670728Y-89932380D01*
X144813585Y-89932380D01*
X144908823Y-89884761D01*
X144956442Y-89837142D01*
X145765966Y-89408571D02*
X145432633Y-89408571D01*
X145432633Y-89932380D02*
X145432633Y-88932380D01*
X145908823Y-88932380D01*
D13*
X143465966Y-87915714D02*
X143427871Y-87953809D01*
X143313585Y-87991904D01*
X143237395Y-87991904D01*
X143123109Y-87953809D01*
X143046919Y-87877619D01*
X143008823Y-87801428D01*
X142970728Y-87649047D01*
X142970728Y-87534761D01*
X143008823Y-87382380D01*
X143046919Y-87306190D01*
X143123109Y-87230000D01*
X143237395Y-87191904D01*
X143313585Y-87191904D01*
X143427871Y-87230000D01*
X143465966Y-87268095D01*
X144151680Y-87458571D02*
X144151680Y-87991904D01*
X143961204Y-87153809D02*
X143770728Y-87725238D01*
X144265966Y-87725238D01*
%TO.C,C3*%
D14*
X141575490Y-95282380D02*
X141670728Y-95282380D01*
X141765966Y-95330000D01*
X141813585Y-95377619D01*
X141861204Y-95472857D01*
X141908823Y-95663333D01*
X141908823Y-95901428D01*
X141861204Y-96091904D01*
X141813585Y-96187142D01*
X141765966Y-96234761D01*
X141670728Y-96282380D01*
X141575490Y-96282380D01*
X141480252Y-96234761D01*
X141432633Y-96187142D01*
X141385014Y-96091904D01*
X141337395Y-95901428D01*
X141337395Y-95663333D01*
X141385014Y-95472857D01*
X141432633Y-95377619D01*
X141480252Y-95330000D01*
X141575490Y-95282380D01*
X142337395Y-96187142D02*
X142385014Y-96234761D01*
X142337395Y-96282380D01*
X142289776Y-96234761D01*
X142337395Y-96187142D01*
X142337395Y-96282380D01*
X143337395Y-96282380D02*
X142765966Y-96282380D01*
X143051680Y-96282380D02*
X143051680Y-95282380D01*
X142956442Y-95425238D01*
X142861204Y-95520476D01*
X142765966Y-95568095D01*
X144956442Y-95615714D02*
X144956442Y-96282380D01*
X144527871Y-95615714D02*
X144527871Y-96139523D01*
X144575490Y-96234761D01*
X144670728Y-96282380D01*
X144813585Y-96282380D01*
X144908823Y-96234761D01*
X144956442Y-96187142D01*
X145765966Y-95758571D02*
X145432633Y-95758571D01*
X145432633Y-96282380D02*
X145432633Y-95282380D01*
X145908823Y-95282380D01*
D13*
X143465966Y-94265714D02*
X143427871Y-94303809D01*
X143313585Y-94341904D01*
X143237395Y-94341904D01*
X143123109Y-94303809D01*
X143046919Y-94227619D01*
X143008823Y-94151428D01*
X142970728Y-93999047D01*
X142970728Y-93884761D01*
X143008823Y-93732380D01*
X143046919Y-93656190D01*
X143123109Y-93580000D01*
X143237395Y-93541904D01*
X143313585Y-93541904D01*
X143427871Y-93580000D01*
X143465966Y-93618095D01*
X143732633Y-93541904D02*
X144227871Y-93541904D01*
X143961204Y-93846666D01*
X144075490Y-93846666D01*
X144151680Y-93884761D01*
X144189776Y-93922857D01*
X144227871Y-93999047D01*
X144227871Y-94189523D01*
X144189776Y-94265714D01*
X144151680Y-94303809D01*
X144075490Y-94341904D01*
X143846919Y-94341904D01*
X143770728Y-94303809D01*
X143732633Y-94265714D01*
%TO.C,C2*%
D14*
X148382690Y-90744180D02*
X148477928Y-90744180D01*
X148573166Y-90791800D01*
X148620785Y-90839419D01*
X148668404Y-90934657D01*
X148716023Y-91125133D01*
X148716023Y-91363228D01*
X148668404Y-91553704D01*
X148620785Y-91648942D01*
X148573166Y-91696561D01*
X148477928Y-91744180D01*
X148382690Y-91744180D01*
X148287452Y-91696561D01*
X148239833Y-91648942D01*
X148192214Y-91553704D01*
X148144595Y-91363228D01*
X148144595Y-91125133D01*
X148192214Y-90934657D01*
X148239833Y-90839419D01*
X148287452Y-90791800D01*
X148382690Y-90744180D01*
X149144595Y-91648942D02*
X149192214Y-91696561D01*
X149144595Y-91744180D01*
X149096976Y-91696561D01*
X149144595Y-91648942D01*
X149144595Y-91744180D01*
X150144595Y-91744180D02*
X149573166Y-91744180D01*
X149858880Y-91744180D02*
X149858880Y-90744180D01*
X149763642Y-90887038D01*
X149668404Y-90982276D01*
X149573166Y-91029895D01*
X151763642Y-91077514D02*
X151763642Y-91744180D01*
X151335071Y-91077514D02*
X151335071Y-91601323D01*
X151382690Y-91696561D01*
X151477928Y-91744180D01*
X151620785Y-91744180D01*
X151716023Y-91696561D01*
X151763642Y-91648942D01*
X152573166Y-91220371D02*
X152239833Y-91220371D01*
X152239833Y-91744180D02*
X152239833Y-90744180D01*
X152716023Y-90744180D01*
D13*
X150273166Y-93427514D02*
X150235071Y-93465609D01*
X150120785Y-93503704D01*
X150044595Y-93503704D01*
X149930309Y-93465609D01*
X149854119Y-93389419D01*
X149816023Y-93313228D01*
X149777928Y-93160847D01*
X149777928Y-93046561D01*
X149816023Y-92894180D01*
X149854119Y-92817990D01*
X149930309Y-92741800D01*
X150044595Y-92703704D01*
X150120785Y-92703704D01*
X150235071Y-92741800D01*
X150273166Y-92779895D01*
X150577928Y-92779895D02*
X150616023Y-92741800D01*
X150692214Y-92703704D01*
X150882690Y-92703704D01*
X150958880Y-92741800D01*
X150996976Y-92779895D01*
X151035071Y-92856085D01*
X151035071Y-92932276D01*
X150996976Y-93046561D01*
X150539833Y-93503704D01*
X151035071Y-93503704D01*
%TO.C,L1*%
D14*
X114678152Y-133725780D02*
X114487676Y-133725780D01*
X114392438Y-133773400D01*
X114344819Y-133821019D01*
X114249580Y-133963876D01*
X114201961Y-134154352D01*
X114201961Y-134535304D01*
X114249580Y-134630542D01*
X114297200Y-134678161D01*
X114392438Y-134725780D01*
X114582914Y-134725780D01*
X114678152Y-134678161D01*
X114725771Y-134630542D01*
X114773390Y-134535304D01*
X114773390Y-134297209D01*
X114725771Y-134201971D01*
X114678152Y-134154352D01*
X114582914Y-134106733D01*
X114392438Y-134106733D01*
X114297200Y-134154352D01*
X114249580Y-134201971D01*
X114201961Y-134297209D01*
X115344819Y-134154352D02*
X115249580Y-134106733D01*
X115201961Y-134059114D01*
X115154342Y-133963876D01*
X115154342Y-133916257D01*
X115201961Y-133821019D01*
X115249580Y-133773400D01*
X115344819Y-133725780D01*
X115535295Y-133725780D01*
X115630533Y-133773400D01*
X115678152Y-133821019D01*
X115725771Y-133916257D01*
X115725771Y-133963876D01*
X115678152Y-134059114D01*
X115630533Y-134106733D01*
X115535295Y-134154352D01*
X115344819Y-134154352D01*
X115249580Y-134201971D01*
X115201961Y-134249590D01*
X115154342Y-134344828D01*
X115154342Y-134535304D01*
X115201961Y-134630542D01*
X115249580Y-134678161D01*
X115344819Y-134725780D01*
X115535295Y-134725780D01*
X115630533Y-134678161D01*
X115678152Y-134630542D01*
X115725771Y-134535304D01*
X115725771Y-134344828D01*
X115678152Y-134249590D01*
X115630533Y-134201971D01*
X115535295Y-134154352D01*
X116582914Y-134059114D02*
X116582914Y-134725780D01*
X116154342Y-134059114D02*
X116154342Y-134582923D01*
X116201961Y-134678161D01*
X116297200Y-134725780D01*
X116440057Y-134725780D01*
X116535295Y-134678161D01*
X116582914Y-134630542D01*
X117059104Y-134725780D02*
X117059104Y-133725780D01*
X117487676Y-134725780D02*
X117487676Y-134201971D01*
X117440057Y-134106733D01*
X117344819Y-134059114D01*
X117201961Y-134059114D01*
X117106723Y-134106733D01*
X117059104Y-134154352D01*
X118678152Y-133678161D02*
X117821009Y-134963876D01*
X118963866Y-133821019D02*
X119011485Y-133773400D01*
X119106723Y-133725780D01*
X119344819Y-133725780D01*
X119440057Y-133773400D01*
X119487676Y-133821019D01*
X119535295Y-133916257D01*
X119535295Y-134011495D01*
X119487676Y-134154352D01*
X118916247Y-134725780D01*
X119535295Y-134725780D01*
X119916247Y-134440066D02*
X120392438Y-134440066D01*
X119821009Y-134725780D02*
X120154342Y-133725780D01*
X120487676Y-134725780D01*
%TO.C,D4*%
X105622180Y-125993257D02*
X105622180Y-126564685D01*
X105622180Y-126278971D02*
X104622180Y-126278971D01*
X104765038Y-126374209D01*
X104860276Y-126469447D01*
X104907895Y-126564685D01*
X105622180Y-125564685D02*
X104622180Y-125564685D01*
X105622180Y-124993257D01*
X104622180Y-124993257D01*
X104622180Y-124040876D02*
X104622180Y-124517066D01*
X105098371Y-124564685D01*
X105050752Y-124517066D01*
X105003133Y-124421828D01*
X105003133Y-124183733D01*
X105050752Y-124088495D01*
X105098371Y-124040876D01*
X105193609Y-123993257D01*
X105431704Y-123993257D01*
X105526942Y-124040876D01*
X105574561Y-124088495D01*
X105622180Y-124183733D01*
X105622180Y-124421828D01*
X105574561Y-124517066D01*
X105526942Y-124564685D01*
X105050752Y-123421828D02*
X105003133Y-123517066D01*
X104955514Y-123564685D01*
X104860276Y-123612304D01*
X104812657Y-123612304D01*
X104717419Y-123564685D01*
X104669800Y-123517066D01*
X104622180Y-123421828D01*
X104622180Y-123231352D01*
X104669800Y-123136114D01*
X104717419Y-123088495D01*
X104812657Y-123040876D01*
X104860276Y-123040876D01*
X104955514Y-123088495D01*
X105003133Y-123136114D01*
X105050752Y-123231352D01*
X105050752Y-123421828D01*
X105098371Y-123517066D01*
X105145990Y-123564685D01*
X105241228Y-123612304D01*
X105431704Y-123612304D01*
X105526942Y-123564685D01*
X105574561Y-123517066D01*
X105622180Y-123421828D01*
X105622180Y-123231352D01*
X105574561Y-123136114D01*
X105526942Y-123088495D01*
X105431704Y-123040876D01*
X105241228Y-123040876D01*
X105145990Y-123088495D01*
X105098371Y-123136114D01*
X105050752Y-123231352D01*
X104717419Y-122659923D02*
X104669800Y-122612304D01*
X104622180Y-122517066D01*
X104622180Y-122278971D01*
X104669800Y-122183733D01*
X104717419Y-122136114D01*
X104812657Y-122088495D01*
X104907895Y-122088495D01*
X105050752Y-122136114D01*
X105622180Y-122707542D01*
X105622180Y-122088495D01*
X104622180Y-121469447D02*
X104622180Y-121374209D01*
X104669800Y-121278971D01*
X104717419Y-121231352D01*
X104812657Y-121183733D01*
X105003133Y-121136114D01*
X105241228Y-121136114D01*
X105431704Y-121183733D01*
X105526942Y-121231352D01*
X105574561Y-121278971D01*
X105622180Y-121374209D01*
X105622180Y-121469447D01*
X105574561Y-121564685D01*
X105526942Y-121612304D01*
X105431704Y-121659923D01*
X105241228Y-121707542D01*
X105003133Y-121707542D01*
X104812657Y-121659923D01*
X104717419Y-121612304D01*
X104669800Y-121564685D01*
X104622180Y-121469447D01*
X111942180Y-116492304D02*
X110942180Y-116492304D01*
X111942180Y-115920876D02*
X111370752Y-116349447D01*
X110942180Y-115920876D02*
X111513609Y-116492304D01*
X109342180Y-125300995D02*
X108342180Y-125300995D01*
X108342180Y-125062900D01*
X108389800Y-124920042D01*
X108485038Y-124824804D01*
X108580276Y-124777185D01*
X108770752Y-124729566D01*
X108913609Y-124729566D01*
X109104085Y-124777185D01*
X109199323Y-124824804D01*
X109294561Y-124920042D01*
X109342180Y-125062900D01*
X109342180Y-125300995D01*
X108675514Y-123872423D02*
X109342180Y-123872423D01*
X108294561Y-124110519D02*
X109008847Y-124348614D01*
X109008847Y-123729566D01*
%TO.C,C7*%
X122764233Y-113207180D02*
X122192804Y-113207180D01*
X122478519Y-113207180D02*
X122478519Y-112207180D01*
X122383280Y-112350038D01*
X122288042Y-112445276D01*
X122192804Y-112492895D01*
X123383280Y-112207180D02*
X123478519Y-112207180D01*
X123573757Y-112254800D01*
X123621376Y-112302419D01*
X123668995Y-112397657D01*
X123716614Y-112588133D01*
X123716614Y-112826228D01*
X123668995Y-113016704D01*
X123621376Y-113111942D01*
X123573757Y-113159561D01*
X123478519Y-113207180D01*
X123383280Y-113207180D01*
X123288042Y-113159561D01*
X123240423Y-113111942D01*
X123192804Y-113016704D01*
X123145185Y-112826228D01*
X123145185Y-112588133D01*
X123192804Y-112397657D01*
X123240423Y-112302419D01*
X123288042Y-112254800D01*
X123383280Y-112207180D01*
X124621376Y-112207180D02*
X124145185Y-112207180D01*
X124097566Y-112683371D01*
X124145185Y-112635752D01*
X124240423Y-112588133D01*
X124478519Y-112588133D01*
X124573757Y-112635752D01*
X124621376Y-112683371D01*
X124668995Y-112778609D01*
X124668995Y-113016704D01*
X124621376Y-113111942D01*
X124573757Y-113159561D01*
X124478519Y-113207180D01*
X124240423Y-113207180D01*
X124145185Y-113159561D01*
X124097566Y-113111942D01*
D13*
X123297566Y-114890514D02*
X123259471Y-114928609D01*
X123145185Y-114966704D01*
X123068995Y-114966704D01*
X122954709Y-114928609D01*
X122878519Y-114852419D01*
X122840423Y-114776228D01*
X122802328Y-114623847D01*
X122802328Y-114509561D01*
X122840423Y-114357180D01*
X122878519Y-114280990D01*
X122954709Y-114204800D01*
X123068995Y-114166704D01*
X123145185Y-114166704D01*
X123259471Y-114204800D01*
X123297566Y-114242895D01*
X123564233Y-114166704D02*
X124097566Y-114166704D01*
X123754709Y-114966704D01*
%TO.C,C5*%
D14*
X123548580Y-130637123D02*
X123548580Y-131208552D01*
X123548580Y-130922838D02*
X122548580Y-130922838D01*
X122691438Y-131018076D01*
X122786676Y-131113314D01*
X122834295Y-131208552D01*
X122977152Y-130065695D02*
X122929533Y-130160933D01*
X122881914Y-130208552D01*
X122786676Y-130256171D01*
X122739057Y-130256171D01*
X122643819Y-130208552D01*
X122596200Y-130160933D01*
X122548580Y-130065695D01*
X122548580Y-129875219D01*
X122596200Y-129779980D01*
X122643819Y-129732361D01*
X122739057Y-129684742D01*
X122786676Y-129684742D01*
X122881914Y-129732361D01*
X122929533Y-129779980D01*
X122977152Y-129875219D01*
X122977152Y-130065695D01*
X123024771Y-130160933D01*
X123072390Y-130208552D01*
X123167628Y-130256171D01*
X123358104Y-130256171D01*
X123453342Y-130208552D01*
X123500961Y-130160933D01*
X123548580Y-130065695D01*
X123548580Y-129875219D01*
X123500961Y-129779980D01*
X123453342Y-129732361D01*
X123358104Y-129684742D01*
X123167628Y-129684742D01*
X123072390Y-129732361D01*
X123024771Y-129779980D01*
X122977152Y-129875219D01*
X122548580Y-129065695D02*
X122548580Y-128970457D01*
X122596200Y-128875219D01*
X122643819Y-128827600D01*
X122739057Y-128779980D01*
X122929533Y-128732361D01*
X123167628Y-128732361D01*
X123358104Y-128779980D01*
X123453342Y-128827600D01*
X123500961Y-128875219D01*
X123548580Y-128970457D01*
X123548580Y-129065695D01*
X123500961Y-129160933D01*
X123453342Y-129208552D01*
X123358104Y-129256171D01*
X123167628Y-129303790D01*
X122929533Y-129303790D01*
X122739057Y-129256171D01*
X122643819Y-129208552D01*
X122596200Y-129160933D01*
X122548580Y-129065695D01*
X122881914Y-127875219D02*
X123548580Y-127875219D01*
X122881914Y-128303790D02*
X123405723Y-128303790D01*
X123500961Y-128256171D01*
X123548580Y-128160933D01*
X123548580Y-128018076D01*
X123500961Y-127922838D01*
X123453342Y-127875219D01*
X122881914Y-127541885D02*
X122881914Y-127160933D01*
X123548580Y-127399028D02*
X122691438Y-127399028D01*
X122596200Y-127351409D01*
X122548580Y-127256171D01*
X122548580Y-127160933D01*
X122500961Y-126113314D02*
X123786676Y-126970457D01*
X122548580Y-125875219D02*
X122548580Y-125256171D01*
X122929533Y-125589504D01*
X122929533Y-125446647D01*
X122977152Y-125351409D01*
X123024771Y-125303790D01*
X123120009Y-125256171D01*
X123358104Y-125256171D01*
X123453342Y-125303790D01*
X123500961Y-125351409D01*
X123548580Y-125446647D01*
X123548580Y-125732361D01*
X123500961Y-125827600D01*
X123453342Y-125875219D01*
X122548580Y-124351409D02*
X122548580Y-124827600D01*
X123024771Y-124875219D01*
X122977152Y-124827600D01*
X122929533Y-124732361D01*
X122929533Y-124494266D01*
X122977152Y-124399028D01*
X123024771Y-124351409D01*
X123120009Y-124303790D01*
X123358104Y-124303790D01*
X123453342Y-124351409D01*
X123500961Y-124399028D01*
X123548580Y-124494266D01*
X123548580Y-124732361D01*
X123500961Y-124827600D01*
X123453342Y-124875219D01*
X122548580Y-124018076D02*
X123548580Y-123684742D01*
X122548580Y-123351409D01*
X128703342Y-127494266D02*
X128750961Y-127541885D01*
X128798580Y-127684742D01*
X128798580Y-127779980D01*
X128750961Y-127922838D01*
X128655723Y-128018076D01*
X128560485Y-128065695D01*
X128370009Y-128113314D01*
X128227152Y-128113314D01*
X128036676Y-128065695D01*
X127941438Y-128018076D01*
X127846200Y-127922838D01*
X127798580Y-127779980D01*
X127798580Y-127684742D01*
X127846200Y-127541885D01*
X127893819Y-127494266D01*
X127798580Y-126589504D02*
X127798580Y-127065695D01*
X128274771Y-127113314D01*
X128227152Y-127065695D01*
X128179533Y-126970457D01*
X128179533Y-126732361D01*
X128227152Y-126637123D01*
X128274771Y-126589504D01*
X128370009Y-126541885D01*
X128608104Y-126541885D01*
X128703342Y-126589504D01*
X128750961Y-126637123D01*
X128798580Y-126732361D01*
X128798580Y-126970457D01*
X128750961Y-127065695D01*
X128703342Y-127113314D01*
%TO.C,C1*%
X147761914Y-100681061D02*
X148428580Y-100681061D01*
X147380961Y-100919157D02*
X148095247Y-101157252D01*
X148095247Y-100538204D01*
X148333342Y-100157252D02*
X148380961Y-100109633D01*
X148428580Y-100157252D01*
X148380961Y-100204871D01*
X148333342Y-100157252D01*
X148428580Y-100157252D01*
X147428580Y-99776300D02*
X147428580Y-99109633D01*
X148428580Y-99538204D01*
X147761914Y-98728680D02*
X148428580Y-98728680D01*
X147857152Y-98728680D02*
X147809533Y-98681061D01*
X147761914Y-98585823D01*
X147761914Y-98442966D01*
X147809533Y-98347728D01*
X147904771Y-98300109D01*
X148428580Y-98300109D01*
X147904771Y-97490585D02*
X147904771Y-97823919D01*
X148428580Y-97823919D02*
X147428580Y-97823919D01*
X147428580Y-97347728D01*
D13*
X146411914Y-99409633D02*
X146450009Y-99447728D01*
X146488104Y-99562014D01*
X146488104Y-99638204D01*
X146450009Y-99752490D01*
X146373819Y-99828680D01*
X146297628Y-99866776D01*
X146145247Y-99904871D01*
X146030961Y-99904871D01*
X145878580Y-99866776D01*
X145802390Y-99828680D01*
X145726200Y-99752490D01*
X145688104Y-99638204D01*
X145688104Y-99562014D01*
X145726200Y-99447728D01*
X145764295Y-99409633D01*
X146488104Y-98647728D02*
X146488104Y-99104871D01*
X146488104Y-98876300D02*
X145688104Y-98876300D01*
X145802390Y-98952490D01*
X145878580Y-99028680D01*
X145916676Y-99104871D01*
%TO.C,D1*%
D14*
X135151904Y-91408571D02*
X135294761Y-91456190D01*
X135342380Y-91503809D01*
X135390000Y-91599047D01*
X135390000Y-91741904D01*
X135342380Y-91837142D01*
X135294761Y-91884761D01*
X135199523Y-91932380D01*
X134818571Y-91932380D01*
X134818571Y-90932380D01*
X135151904Y-90932380D01*
X135247142Y-90980000D01*
X135294761Y-91027619D01*
X135342380Y-91122857D01*
X135342380Y-91218095D01*
X135294761Y-91313333D01*
X135247142Y-91360952D01*
X135151904Y-91408571D01*
X134818571Y-91408571D01*
X135770952Y-91646666D02*
X136247142Y-91646666D01*
X135675714Y-91932380D02*
X136009047Y-90932380D01*
X136342380Y-91932380D01*
X136532857Y-90932380D02*
X136866190Y-91932380D01*
X137199523Y-90932380D01*
X137580476Y-91932380D02*
X137770952Y-91932380D01*
X137866190Y-91884761D01*
X137913809Y-91837142D01*
X138009047Y-91694285D01*
X138056666Y-91503809D01*
X138056666Y-91122857D01*
X138009047Y-91027619D01*
X137961428Y-90980000D01*
X137866190Y-90932380D01*
X137675714Y-90932380D01*
X137580476Y-90980000D01*
X137532857Y-91027619D01*
X137485238Y-91122857D01*
X137485238Y-91360952D01*
X137532857Y-91456190D01*
X137580476Y-91503809D01*
X137675714Y-91551428D01*
X137866190Y-91551428D01*
X137961428Y-91503809D01*
X138009047Y-91456190D01*
X138056666Y-91360952D01*
X138532857Y-91932380D02*
X138723333Y-91932380D01*
X138818571Y-91884761D01*
X138866190Y-91837142D01*
X138961428Y-91694285D01*
X139009047Y-91503809D01*
X139009047Y-91122857D01*
X138961428Y-91027619D01*
X138913809Y-90980000D01*
X138818571Y-90932380D01*
X138628095Y-90932380D01*
X138532857Y-90980000D01*
X138485238Y-91027619D01*
X138437619Y-91122857D01*
X138437619Y-91360952D01*
X138485238Y-91456190D01*
X138532857Y-91503809D01*
X138628095Y-91551428D01*
X138818571Y-91551428D01*
X138913809Y-91503809D01*
X138961428Y-91456190D01*
X139009047Y-91360952D01*
D16*
X137116190Y-94349047D02*
X136616190Y-94349047D01*
X136616190Y-94230000D01*
X136640000Y-94158571D01*
X136687619Y-94110952D01*
X136735238Y-94087142D01*
X136830476Y-94063333D01*
X136901904Y-94063333D01*
X136997142Y-94087142D01*
X137044761Y-94110952D01*
X137092380Y-94158571D01*
X137116190Y-94230000D01*
X137116190Y-94349047D01*
X137116190Y-93587142D02*
X137116190Y-93872857D01*
X137116190Y-93730000D02*
X136616190Y-93730000D01*
X136687619Y-93777619D01*
X136735238Y-93825238D01*
X136759047Y-93872857D01*
%TO.C,D2*%
D14*
X135151904Y-85058571D02*
X135294761Y-85106190D01*
X135342380Y-85153809D01*
X135390000Y-85249047D01*
X135390000Y-85391904D01*
X135342380Y-85487142D01*
X135294761Y-85534761D01*
X135199523Y-85582380D01*
X134818571Y-85582380D01*
X134818571Y-84582380D01*
X135151904Y-84582380D01*
X135247142Y-84630000D01*
X135294761Y-84677619D01*
X135342380Y-84772857D01*
X135342380Y-84868095D01*
X135294761Y-84963333D01*
X135247142Y-85010952D01*
X135151904Y-85058571D01*
X134818571Y-85058571D01*
X135770952Y-85296666D02*
X136247142Y-85296666D01*
X135675714Y-85582380D02*
X136009047Y-84582380D01*
X136342380Y-85582380D01*
X136532857Y-84582380D02*
X136866190Y-85582380D01*
X137199523Y-84582380D01*
X137580476Y-85582380D02*
X137770952Y-85582380D01*
X137866190Y-85534761D01*
X137913809Y-85487142D01*
X138009047Y-85344285D01*
X138056666Y-85153809D01*
X138056666Y-84772857D01*
X138009047Y-84677619D01*
X137961428Y-84630000D01*
X137866190Y-84582380D01*
X137675714Y-84582380D01*
X137580476Y-84630000D01*
X137532857Y-84677619D01*
X137485238Y-84772857D01*
X137485238Y-85010952D01*
X137532857Y-85106190D01*
X137580476Y-85153809D01*
X137675714Y-85201428D01*
X137866190Y-85201428D01*
X137961428Y-85153809D01*
X138009047Y-85106190D01*
X138056666Y-85010952D01*
X138532857Y-85582380D02*
X138723333Y-85582380D01*
X138818571Y-85534761D01*
X138866190Y-85487142D01*
X138961428Y-85344285D01*
X139009047Y-85153809D01*
X139009047Y-84772857D01*
X138961428Y-84677619D01*
X138913809Y-84630000D01*
X138818571Y-84582380D01*
X138628095Y-84582380D01*
X138532857Y-84630000D01*
X138485238Y-84677619D01*
X138437619Y-84772857D01*
X138437619Y-85010952D01*
X138485238Y-85106190D01*
X138532857Y-85153809D01*
X138628095Y-85201428D01*
X138818571Y-85201428D01*
X138913809Y-85153809D01*
X138961428Y-85106190D01*
X139009047Y-85010952D01*
D16*
X137116190Y-87999047D02*
X136616190Y-87999047D01*
X136616190Y-87880000D01*
X136640000Y-87808571D01*
X136687619Y-87760952D01*
X136735238Y-87737142D01*
X136830476Y-87713333D01*
X136901904Y-87713333D01*
X136997142Y-87737142D01*
X137044761Y-87760952D01*
X137092380Y-87808571D01*
X137116190Y-87880000D01*
X137116190Y-87999047D01*
X136663809Y-87522857D02*
X136640000Y-87499047D01*
X136616190Y-87451428D01*
X136616190Y-87332380D01*
X136640000Y-87284761D01*
X136663809Y-87260952D01*
X136711428Y-87237142D01*
X136759047Y-87237142D01*
X136830476Y-87260952D01*
X137116190Y-87546666D01*
X137116190Y-87237142D01*
%TO.C,D3*%
D14*
X135151904Y-78708571D02*
X135294761Y-78756190D01*
X135342380Y-78803809D01*
X135390000Y-78899047D01*
X135390000Y-79041904D01*
X135342380Y-79137142D01*
X135294761Y-79184761D01*
X135199523Y-79232380D01*
X134818571Y-79232380D01*
X134818571Y-78232380D01*
X135151904Y-78232380D01*
X135247142Y-78280000D01*
X135294761Y-78327619D01*
X135342380Y-78422857D01*
X135342380Y-78518095D01*
X135294761Y-78613333D01*
X135247142Y-78660952D01*
X135151904Y-78708571D01*
X134818571Y-78708571D01*
X135770952Y-78946666D02*
X136247142Y-78946666D01*
X135675714Y-79232380D02*
X136009047Y-78232380D01*
X136342380Y-79232380D01*
X136532857Y-78232380D02*
X136866190Y-79232380D01*
X137199523Y-78232380D01*
X137580476Y-79232380D02*
X137770952Y-79232380D01*
X137866190Y-79184761D01*
X137913809Y-79137142D01*
X138009047Y-78994285D01*
X138056666Y-78803809D01*
X138056666Y-78422857D01*
X138009047Y-78327619D01*
X137961428Y-78280000D01*
X137866190Y-78232380D01*
X137675714Y-78232380D01*
X137580476Y-78280000D01*
X137532857Y-78327619D01*
X137485238Y-78422857D01*
X137485238Y-78660952D01*
X137532857Y-78756190D01*
X137580476Y-78803809D01*
X137675714Y-78851428D01*
X137866190Y-78851428D01*
X137961428Y-78803809D01*
X138009047Y-78756190D01*
X138056666Y-78660952D01*
X138532857Y-79232380D02*
X138723333Y-79232380D01*
X138818571Y-79184761D01*
X138866190Y-79137142D01*
X138961428Y-78994285D01*
X139009047Y-78803809D01*
X139009047Y-78422857D01*
X138961428Y-78327619D01*
X138913809Y-78280000D01*
X138818571Y-78232380D01*
X138628095Y-78232380D01*
X138532857Y-78280000D01*
X138485238Y-78327619D01*
X138437619Y-78422857D01*
X138437619Y-78660952D01*
X138485238Y-78756190D01*
X138532857Y-78803809D01*
X138628095Y-78851428D01*
X138818571Y-78851428D01*
X138913809Y-78803809D01*
X138961428Y-78756190D01*
X139009047Y-78660952D01*
D16*
X137116190Y-81649047D02*
X136616190Y-81649047D01*
X136616190Y-81530000D01*
X136640000Y-81458571D01*
X136687619Y-81410952D01*
X136735238Y-81387142D01*
X136830476Y-81363333D01*
X136901904Y-81363333D01*
X136997142Y-81387142D01*
X137044761Y-81410952D01*
X137092380Y-81458571D01*
X137116190Y-81530000D01*
X137116190Y-81649047D01*
X136616190Y-81196666D02*
X136616190Y-80887142D01*
X136806666Y-81053809D01*
X136806666Y-80982380D01*
X136830476Y-80934761D01*
X136854285Y-80910952D01*
X136901904Y-80887142D01*
X137020952Y-80887142D01*
X137068571Y-80910952D01*
X137092380Y-80934761D01*
X137116190Y-80982380D01*
X137116190Y-81125238D01*
X137092380Y-81172857D01*
X137068571Y-81196666D01*
%TO.C,J2*%
D14*
X107843580Y-88777247D02*
X107367390Y-89110580D01*
X107843580Y-89348676D02*
X106843580Y-89348676D01*
X106843580Y-88967723D01*
X106891200Y-88872485D01*
X106938819Y-88824866D01*
X107034057Y-88777247D01*
X107176914Y-88777247D01*
X107272152Y-88824866D01*
X107319771Y-88872485D01*
X107367390Y-88967723D01*
X107367390Y-89348676D01*
X106843580Y-88062961D02*
X107557866Y-88062961D01*
X107700723Y-88110580D01*
X107795961Y-88205819D01*
X107843580Y-88348676D01*
X107843580Y-88443914D01*
X107843580Y-87062961D02*
X107843580Y-87634390D01*
X107843580Y-87348676D02*
X106843580Y-87348676D01*
X106986438Y-87443914D01*
X107081676Y-87539152D01*
X107129295Y-87634390D01*
X106938819Y-86682009D02*
X106891200Y-86634390D01*
X106843580Y-86539152D01*
X106843580Y-86301057D01*
X106891200Y-86205819D01*
X106938819Y-86158200D01*
X107034057Y-86110580D01*
X107129295Y-86110580D01*
X107272152Y-86158200D01*
X107843580Y-86729628D01*
X107843580Y-86110580D01*
X107462628Y-84920104D02*
X107462628Y-84158200D01*
X106843580Y-83015342D02*
X107843580Y-82777247D01*
X107129295Y-82586771D01*
X107843580Y-82396295D01*
X106843580Y-82158200D01*
X107843580Y-81777247D02*
X107176914Y-81777247D01*
X106843580Y-81777247D02*
X106891200Y-81824866D01*
X106938819Y-81777247D01*
X106891200Y-81729628D01*
X106843580Y-81777247D01*
X106938819Y-81777247D01*
X107176914Y-81301057D02*
X107843580Y-81301057D01*
X107272152Y-81301057D02*
X107224533Y-81253438D01*
X107176914Y-81158200D01*
X107176914Y-81015342D01*
X107224533Y-80920104D01*
X107319771Y-80872485D01*
X107843580Y-80872485D01*
X107843580Y-79967723D02*
X106843580Y-79967723D01*
X107795961Y-79967723D02*
X107843580Y-80062961D01*
X107843580Y-80253438D01*
X107795961Y-80348676D01*
X107748342Y-80396295D01*
X107653104Y-80443914D01*
X107367390Y-80443914D01*
X107272152Y-80396295D01*
X107224533Y-80348676D01*
X107176914Y-80253438D01*
X107176914Y-80062961D01*
X107224533Y-79967723D01*
X117422380Y-87313333D02*
X118136666Y-87313333D01*
X118279523Y-87360952D01*
X118374761Y-87456190D01*
X118422380Y-87599047D01*
X118422380Y-87694285D01*
X117517619Y-86884761D02*
X117470000Y-86837142D01*
X117422380Y-86741904D01*
X117422380Y-86503809D01*
X117470000Y-86408571D01*
X117517619Y-86360952D01*
X117612857Y-86313333D01*
X117708095Y-86313333D01*
X117850952Y-86360952D01*
X118422380Y-86932380D01*
X118422380Y-86313333D01*
%TO.C,J3*%
X107614980Y-104072819D02*
X107138790Y-104406152D01*
X107614980Y-104644247D02*
X106614980Y-104644247D01*
X106614980Y-104263295D01*
X106662600Y-104168057D01*
X106710219Y-104120438D01*
X106805457Y-104072819D01*
X106948314Y-104072819D01*
X107043552Y-104120438D01*
X107091171Y-104168057D01*
X107138790Y-104263295D01*
X107138790Y-104644247D01*
X106614980Y-103358533D02*
X107329266Y-103358533D01*
X107472123Y-103406152D01*
X107567361Y-103501390D01*
X107614980Y-103644247D01*
X107614980Y-103739485D01*
X107614980Y-102358533D02*
X107614980Y-102929961D01*
X107614980Y-102644247D02*
X106614980Y-102644247D01*
X106757838Y-102739485D01*
X106853076Y-102834723D01*
X106900695Y-102929961D01*
X106710219Y-101977580D02*
X106662600Y-101929961D01*
X106614980Y-101834723D01*
X106614980Y-101596628D01*
X106662600Y-101501390D01*
X106710219Y-101453771D01*
X106805457Y-101406152D01*
X106900695Y-101406152D01*
X107043552Y-101453771D01*
X107614980Y-102025200D01*
X107614980Y-101406152D01*
X107234028Y-100215676D02*
X107234028Y-99453771D01*
X107614980Y-97644247D02*
X107138790Y-97977580D01*
X107614980Y-98215676D02*
X106614980Y-98215676D01*
X106614980Y-97834723D01*
X106662600Y-97739485D01*
X106710219Y-97691866D01*
X106805457Y-97644247D01*
X106948314Y-97644247D01*
X107043552Y-97691866D01*
X107091171Y-97739485D01*
X107138790Y-97834723D01*
X107138790Y-98215676D01*
X107614980Y-96787104D02*
X107091171Y-96787104D01*
X106995933Y-96834723D01*
X106948314Y-96929961D01*
X106948314Y-97120438D01*
X106995933Y-97215676D01*
X107567361Y-96787104D02*
X107614980Y-96882342D01*
X107614980Y-97120438D01*
X107567361Y-97215676D01*
X107472123Y-97263295D01*
X107376885Y-97263295D01*
X107281647Y-97215676D01*
X107234028Y-97120438D01*
X107234028Y-96882342D01*
X107186409Y-96787104D01*
X107614980Y-96310914D02*
X106948314Y-96310914D01*
X106614980Y-96310914D02*
X106662600Y-96358533D01*
X106710219Y-96310914D01*
X106662600Y-96263295D01*
X106614980Y-96310914D01*
X106710219Y-96310914D01*
X106948314Y-95834723D02*
X107614980Y-95834723D01*
X107043552Y-95834723D02*
X106995933Y-95787104D01*
X106948314Y-95691866D01*
X106948314Y-95549009D01*
X106995933Y-95453771D01*
X107091171Y-95406152D01*
X107614980Y-95406152D01*
X117422380Y-102553333D02*
X118136666Y-102553333D01*
X118279523Y-102600952D01*
X118374761Y-102696190D01*
X118422380Y-102839047D01*
X118422380Y-102934285D01*
X117422380Y-102172380D02*
X117422380Y-101553333D01*
X117803333Y-101886666D01*
X117803333Y-101743809D01*
X117850952Y-101648571D01*
X117898571Y-101600952D01*
X117993809Y-101553333D01*
X118231904Y-101553333D01*
X118327142Y-101600952D01*
X118374761Y-101648571D01*
X118422380Y-101743809D01*
X118422380Y-102029523D01*
X118374761Y-102124761D01*
X118327142Y-102172380D01*
%TO.C,J10*%
X116617904Y-76833361D02*
X116760761Y-76880980D01*
X116998857Y-76880980D01*
X117094095Y-76833361D01*
X117141714Y-76785742D01*
X117189333Y-76690504D01*
X117189333Y-76595266D01*
X117141714Y-76500028D01*
X117094095Y-76452409D01*
X116998857Y-76404790D01*
X116808380Y-76357171D01*
X116713142Y-76309552D01*
X116665523Y-76261933D01*
X116617904Y-76166695D01*
X116617904Y-76071457D01*
X116665523Y-75976219D01*
X116713142Y-75928600D01*
X116808380Y-75880980D01*
X117046476Y-75880980D01*
X117189333Y-75928600D01*
X117760761Y-76880980D02*
X117665523Y-76833361D01*
X117617904Y-76785742D01*
X117570285Y-76690504D01*
X117570285Y-76404790D01*
X117617904Y-76309552D01*
X117665523Y-76261933D01*
X117760761Y-76214314D01*
X117903619Y-76214314D01*
X117998857Y-76261933D01*
X118046476Y-76309552D01*
X118094095Y-76404790D01*
X118094095Y-76690504D01*
X118046476Y-76785742D01*
X117998857Y-76833361D01*
X117903619Y-76880980D01*
X117760761Y-76880980D01*
X118522666Y-76880980D02*
X118522666Y-76214314D01*
X118522666Y-75880980D02*
X118475047Y-75928600D01*
X118522666Y-75976219D01*
X118570285Y-75928600D01*
X118522666Y-75880980D01*
X118522666Y-75976219D01*
X119141714Y-76880980D02*
X119046476Y-76833361D01*
X118998857Y-76738123D01*
X118998857Y-75880980D01*
X117169676Y-72927980D02*
X117169676Y-73642266D01*
X117122057Y-73785123D01*
X117026819Y-73880361D01*
X116883961Y-73927980D01*
X116788723Y-73927980D01*
X118169676Y-73927980D02*
X117598247Y-73927980D01*
X117883961Y-73927980D02*
X117883961Y-72927980D01*
X117788723Y-73070838D01*
X117693485Y-73166076D01*
X117598247Y-73213695D01*
X118788723Y-72927980D02*
X118883961Y-72927980D01*
X118979200Y-72975600D01*
X119026819Y-73023219D01*
X119074438Y-73118457D01*
X119122057Y-73308933D01*
X119122057Y-73547028D01*
X119074438Y-73737504D01*
X119026819Y-73832742D01*
X118979200Y-73880361D01*
X118883961Y-73927980D01*
X118788723Y-73927980D01*
X118693485Y-73880361D01*
X118645866Y-73832742D01*
X118598247Y-73737504D01*
X118550628Y-73547028D01*
X118550628Y-73308933D01*
X118598247Y-73118457D01*
X118645866Y-73023219D01*
X118693485Y-72975600D01*
X118788723Y-72927980D01*
%TO.C,R1*%
X135646676Y-95447780D02*
X136265723Y-95447780D01*
X135932390Y-95828733D01*
X136075247Y-95828733D01*
X136170485Y-95876352D01*
X136218104Y-95923971D01*
X136265723Y-96019209D01*
X136265723Y-96257304D01*
X136218104Y-96352542D01*
X136170485Y-96400161D01*
X136075247Y-96447780D01*
X135789533Y-96447780D01*
X135694295Y-96400161D01*
X135646676Y-96352542D01*
X136599057Y-95447780D02*
X137218104Y-95447780D01*
X136884771Y-95828733D01*
X137027628Y-95828733D01*
X137122866Y-95876352D01*
X137170485Y-95923971D01*
X137218104Y-96019209D01*
X137218104Y-96257304D01*
X137170485Y-96352542D01*
X137122866Y-96400161D01*
X137027628Y-96447780D01*
X136741914Y-96447780D01*
X136646676Y-96400161D01*
X136599057Y-96352542D01*
X137646676Y-96447780D02*
X137646676Y-95447780D01*
X138218104Y-96447780D02*
X137789533Y-95876352D01*
X138218104Y-95447780D02*
X137646676Y-96019209D01*
D13*
X136822866Y-98177304D02*
X136556200Y-97796352D01*
X136365723Y-98177304D02*
X136365723Y-97377304D01*
X136670485Y-97377304D01*
X136746676Y-97415400D01*
X136784771Y-97453495D01*
X136822866Y-97529685D01*
X136822866Y-97643971D01*
X136784771Y-97720161D01*
X136746676Y-97758257D01*
X136670485Y-97796352D01*
X136365723Y-97796352D01*
X137584771Y-98177304D02*
X137127628Y-98177304D01*
X137356200Y-98177304D02*
X137356200Y-97377304D01*
X137280009Y-97491590D01*
X137203819Y-97567780D01*
X137127628Y-97605876D01*
%TO.C,R2*%
D14*
X135987523Y-74408380D02*
X135416095Y-74408380D01*
X135701809Y-74408380D02*
X135701809Y-73408380D01*
X135606571Y-73551238D01*
X135511333Y-73646476D01*
X135416095Y-73694095D01*
X136606571Y-73408380D02*
X136701809Y-73408380D01*
X136797047Y-73456000D01*
X136844666Y-73503619D01*
X136892285Y-73598857D01*
X136939904Y-73789333D01*
X136939904Y-74027428D01*
X136892285Y-74217904D01*
X136844666Y-74313142D01*
X136797047Y-74360761D01*
X136701809Y-74408380D01*
X136606571Y-74408380D01*
X136511333Y-74360761D01*
X136463714Y-74313142D01*
X136416095Y-74217904D01*
X136368476Y-74027428D01*
X136368476Y-73789333D01*
X136416095Y-73598857D01*
X136463714Y-73503619D01*
X136511333Y-73456000D01*
X136606571Y-73408380D01*
X137368476Y-74408380D02*
X137368476Y-73408380D01*
X137939904Y-74408380D02*
X137511333Y-73836952D01*
X137939904Y-73408380D02*
X137368476Y-73979809D01*
D13*
X136544666Y-72497904D02*
X136278000Y-72116952D01*
X136087523Y-72497904D02*
X136087523Y-71697904D01*
X136392285Y-71697904D01*
X136468476Y-71736000D01*
X136506571Y-71774095D01*
X136544666Y-71850285D01*
X136544666Y-71964571D01*
X136506571Y-72040761D01*
X136468476Y-72078857D01*
X136392285Y-72116952D01*
X136087523Y-72116952D01*
X136849428Y-71774095D02*
X136887523Y-71736000D01*
X136963714Y-71697904D01*
X137154190Y-71697904D01*
X137230380Y-71736000D01*
X137268476Y-71774095D01*
X137306571Y-71850285D01*
X137306571Y-71926476D01*
X137268476Y-72040761D01*
X136811333Y-72497904D01*
X137306571Y-72497904D01*
%TO.C,R3*%
D14*
X135130380Y-77472380D02*
X135749428Y-77472380D01*
X135416095Y-77853333D01*
X135558952Y-77853333D01*
X135654190Y-77900952D01*
X135701809Y-77948571D01*
X135749428Y-78043809D01*
X135749428Y-78281904D01*
X135701809Y-78377142D01*
X135654190Y-78424761D01*
X135558952Y-78472380D01*
X135273238Y-78472380D01*
X135178000Y-78424761D01*
X135130380Y-78377142D01*
X136178000Y-78377142D02*
X136225619Y-78424761D01*
X136178000Y-78472380D01*
X136130380Y-78424761D01*
X136178000Y-78377142D01*
X136178000Y-78472380D01*
X136558952Y-77472380D02*
X137178000Y-77472380D01*
X136844666Y-77853333D01*
X136987523Y-77853333D01*
X137082761Y-77900952D01*
X137130380Y-77948571D01*
X137178000Y-78043809D01*
X137178000Y-78281904D01*
X137130380Y-78377142D01*
X137082761Y-78424761D01*
X136987523Y-78472380D01*
X136701809Y-78472380D01*
X136606571Y-78424761D01*
X136558952Y-78377142D01*
X137606571Y-78472380D02*
X137606571Y-77472380D01*
X138178000Y-78472380D02*
X137749428Y-77900952D01*
X138178000Y-77472380D02*
X137606571Y-78043809D01*
D13*
X136544666Y-76561904D02*
X136278000Y-76180952D01*
X136087523Y-76561904D02*
X136087523Y-75761904D01*
X136392285Y-75761904D01*
X136468476Y-75800000D01*
X136506571Y-75838095D01*
X136544666Y-75914285D01*
X136544666Y-76028571D01*
X136506571Y-76104761D01*
X136468476Y-76142857D01*
X136392285Y-76180952D01*
X136087523Y-76180952D01*
X136811333Y-75761904D02*
X137306571Y-75761904D01*
X137039904Y-76066666D01*
X137154190Y-76066666D01*
X137230380Y-76104761D01*
X137268476Y-76142857D01*
X137306571Y-76219047D01*
X137306571Y-76409523D01*
X137268476Y-76485714D01*
X137230380Y-76523809D01*
X137154190Y-76561904D01*
X136925619Y-76561904D01*
X136849428Y-76523809D01*
X136811333Y-76485714D01*
%TO.C,R5*%
D14*
X144639380Y-99478085D02*
X144639380Y-100049514D01*
X144639380Y-99763800D02*
X143639380Y-99763800D01*
X143782238Y-99859038D01*
X143877476Y-99954276D01*
X143925095Y-100049514D01*
X144639380Y-99049514D02*
X143639380Y-99049514D01*
X144639380Y-98478085D02*
X144067952Y-98906657D01*
X143639380Y-98478085D02*
X144210809Y-99049514D01*
D13*
X142728904Y-99397133D02*
X142347952Y-99663800D01*
X142728904Y-99854276D02*
X141928904Y-99854276D01*
X141928904Y-99549514D01*
X141967000Y-99473323D01*
X142005095Y-99435228D01*
X142081285Y-99397133D01*
X142195571Y-99397133D01*
X142271761Y-99435228D01*
X142309857Y-99473323D01*
X142347952Y-99549514D01*
X142347952Y-99854276D01*
X141928904Y-98673323D02*
X141928904Y-99054276D01*
X142309857Y-99092371D01*
X142271761Y-99054276D01*
X142233666Y-98978085D01*
X142233666Y-98787609D01*
X142271761Y-98711419D01*
X142309857Y-98673323D01*
X142386047Y-98635228D01*
X142576523Y-98635228D01*
X142652714Y-98673323D01*
X142690809Y-98711419D01*
X142728904Y-98787609D01*
X142728904Y-98978085D01*
X142690809Y-99054276D01*
X142652714Y-99092371D01*
%TO.C,R6*%
D14*
X141614342Y-115665190D02*
X141661961Y-115617571D01*
X141709580Y-115665190D01*
X141661961Y-115712809D01*
X141614342Y-115665190D01*
X141709580Y-115665190D01*
X140757200Y-115855666D02*
X140709580Y-115760428D01*
X140709580Y-115522333D01*
X140757200Y-115427095D01*
X140852438Y-115379476D01*
X140947676Y-115379476D01*
X141042914Y-115427095D01*
X141090533Y-115474714D01*
X141138152Y-115569952D01*
X141185771Y-115617571D01*
X141281009Y-115665190D01*
X141328628Y-115665190D01*
X141614342Y-114808047D02*
X141661961Y-114760428D01*
X141709580Y-114808047D01*
X141661961Y-114855666D01*
X141614342Y-114808047D01*
X141709580Y-114808047D01*
X140757200Y-114998523D02*
X140709580Y-114903285D01*
X140709580Y-114665190D01*
X140757200Y-114569952D01*
X140852438Y-114522333D01*
X140947676Y-114522333D01*
X141042914Y-114569952D01*
X141090533Y-114617571D01*
X141138152Y-114712809D01*
X141185771Y-114760428D01*
X141281009Y-114808047D01*
X141328628Y-114808047D01*
X139339580Y-115355666D02*
X138863390Y-115689000D01*
X139339580Y-115927095D02*
X138339580Y-115927095D01*
X138339580Y-115546142D01*
X138387200Y-115450904D01*
X138434819Y-115403285D01*
X138530057Y-115355666D01*
X138672914Y-115355666D01*
X138768152Y-115403285D01*
X138815771Y-115450904D01*
X138863390Y-115546142D01*
X138863390Y-115927095D01*
X138339580Y-114498523D02*
X138339580Y-114689000D01*
X138387200Y-114784238D01*
X138434819Y-114831857D01*
X138577676Y-114927095D01*
X138768152Y-114974714D01*
X139149104Y-114974714D01*
X139244342Y-114927095D01*
X139291961Y-114879476D01*
X139339580Y-114784238D01*
X139339580Y-114593761D01*
X139291961Y-114498523D01*
X139244342Y-114450904D01*
X139149104Y-114403285D01*
X138911009Y-114403285D01*
X138815771Y-114450904D01*
X138768152Y-114498523D01*
X138720533Y-114593761D01*
X138720533Y-114784238D01*
X138768152Y-114879476D01*
X138815771Y-114927095D01*
X138911009Y-114974714D01*
%TO.C,R7*%
X132480142Y-115665190D02*
X132527761Y-115617571D01*
X132575380Y-115665190D01*
X132527761Y-115712809D01*
X132480142Y-115665190D01*
X132575380Y-115665190D01*
X131623000Y-115855666D02*
X131575380Y-115760428D01*
X131575380Y-115522333D01*
X131623000Y-115427095D01*
X131718238Y-115379476D01*
X131813476Y-115379476D01*
X131908714Y-115427095D01*
X131956333Y-115474714D01*
X132003952Y-115569952D01*
X132051571Y-115617571D01*
X132146809Y-115665190D01*
X132194428Y-115665190D01*
X132480142Y-114808047D02*
X132527761Y-114760428D01*
X132575380Y-114808047D01*
X132527761Y-114855666D01*
X132480142Y-114808047D01*
X132575380Y-114808047D01*
X131623000Y-114998523D02*
X131575380Y-114903285D01*
X131575380Y-114665190D01*
X131623000Y-114569952D01*
X131718238Y-114522333D01*
X131813476Y-114522333D01*
X131908714Y-114569952D01*
X131956333Y-114617571D01*
X132003952Y-114712809D01*
X132051571Y-114760428D01*
X132146809Y-114808047D01*
X132194428Y-114808047D01*
X134945380Y-115355666D02*
X134469190Y-115689000D01*
X134945380Y-115927095D02*
X133945380Y-115927095D01*
X133945380Y-115546142D01*
X133993000Y-115450904D01*
X134040619Y-115403285D01*
X134135857Y-115355666D01*
X134278714Y-115355666D01*
X134373952Y-115403285D01*
X134421571Y-115450904D01*
X134469190Y-115546142D01*
X134469190Y-115927095D01*
X133945380Y-115022333D02*
X133945380Y-114355666D01*
X134945380Y-114784238D01*
%TO.C,R8*%
X144190523Y-70903180D02*
X143619095Y-70903180D01*
X143904809Y-70903180D02*
X143904809Y-69903180D01*
X143809571Y-70046038D01*
X143714333Y-70141276D01*
X143619095Y-70188895D01*
X144809571Y-69903180D02*
X144904809Y-69903180D01*
X145000047Y-69950800D01*
X145047666Y-69998419D01*
X145095285Y-70093657D01*
X145142904Y-70284133D01*
X145142904Y-70522228D01*
X145095285Y-70712704D01*
X145047666Y-70807942D01*
X145000047Y-70855561D01*
X144904809Y-70903180D01*
X144809571Y-70903180D01*
X144714333Y-70855561D01*
X144666714Y-70807942D01*
X144619095Y-70712704D01*
X144571476Y-70522228D01*
X144571476Y-70284133D01*
X144619095Y-70093657D01*
X144666714Y-69998419D01*
X144714333Y-69950800D01*
X144809571Y-69903180D01*
X145571476Y-70903180D02*
X145571476Y-69903180D01*
X146142904Y-70903180D02*
X145714333Y-70331752D01*
X146142904Y-69903180D02*
X145571476Y-70474609D01*
D13*
X144747666Y-68992704D02*
X144481000Y-68611752D01*
X144290523Y-68992704D02*
X144290523Y-68192704D01*
X144595285Y-68192704D01*
X144671476Y-68230800D01*
X144709571Y-68268895D01*
X144747666Y-68345085D01*
X144747666Y-68459371D01*
X144709571Y-68535561D01*
X144671476Y-68573657D01*
X144595285Y-68611752D01*
X144290523Y-68611752D01*
X145204809Y-68535561D02*
X145128619Y-68497466D01*
X145090523Y-68459371D01*
X145052428Y-68383180D01*
X145052428Y-68345085D01*
X145090523Y-68268895D01*
X145128619Y-68230800D01*
X145204809Y-68192704D01*
X145357190Y-68192704D01*
X145433380Y-68230800D01*
X145471476Y-68268895D01*
X145509571Y-68345085D01*
X145509571Y-68383180D01*
X145471476Y-68459371D01*
X145433380Y-68497466D01*
X145357190Y-68535561D01*
X145204809Y-68535561D01*
X145128619Y-68573657D01*
X145090523Y-68611752D01*
X145052428Y-68687942D01*
X145052428Y-68840323D01*
X145090523Y-68916514D01*
X145128619Y-68954609D01*
X145204809Y-68992704D01*
X145357190Y-68992704D01*
X145433380Y-68954609D01*
X145471476Y-68916514D01*
X145509571Y-68840323D01*
X145509571Y-68687942D01*
X145471476Y-68611752D01*
X145433380Y-68573657D01*
X145357190Y-68535561D01*
%TO.C,R9*%
D14*
X143822295Y-71413019D02*
X143869914Y-71365400D01*
X143965152Y-71317780D01*
X144203247Y-71317780D01*
X144298485Y-71365400D01*
X144346104Y-71413019D01*
X144393723Y-71508257D01*
X144393723Y-71603495D01*
X144346104Y-71746352D01*
X143774676Y-72317780D01*
X144393723Y-72317780D01*
X144774676Y-71413019D02*
X144822295Y-71365400D01*
X144917533Y-71317780D01*
X145155628Y-71317780D01*
X145250866Y-71365400D01*
X145298485Y-71413019D01*
X145346104Y-71508257D01*
X145346104Y-71603495D01*
X145298485Y-71746352D01*
X144727057Y-72317780D01*
X145346104Y-72317780D01*
X145774676Y-72317780D02*
X145774676Y-71317780D01*
X146346104Y-72317780D02*
X145917533Y-71746352D01*
X146346104Y-71317780D02*
X145774676Y-71889209D01*
D13*
X144950866Y-74047304D02*
X144684200Y-73666352D01*
X144493723Y-74047304D02*
X144493723Y-73247304D01*
X144798485Y-73247304D01*
X144874676Y-73285400D01*
X144912771Y-73323495D01*
X144950866Y-73399685D01*
X144950866Y-73513971D01*
X144912771Y-73590161D01*
X144874676Y-73628257D01*
X144798485Y-73666352D01*
X144493723Y-73666352D01*
X145331819Y-74047304D02*
X145484200Y-74047304D01*
X145560390Y-74009209D01*
X145598485Y-73971114D01*
X145674676Y-73856828D01*
X145712771Y-73704447D01*
X145712771Y-73399685D01*
X145674676Y-73323495D01*
X145636580Y-73285400D01*
X145560390Y-73247304D01*
X145408009Y-73247304D01*
X145331819Y-73285400D01*
X145293723Y-73323495D01*
X145255628Y-73399685D01*
X145255628Y-73590161D01*
X145293723Y-73666352D01*
X145331819Y-73704447D01*
X145408009Y-73742542D01*
X145560390Y-73742542D01*
X145636580Y-73704447D01*
X145674676Y-73666352D01*
X145712771Y-73590161D01*
%TO.C,R10*%
D14*
X149938533Y-72292380D02*
X149367104Y-72292380D01*
X149652819Y-72292380D02*
X149652819Y-71292380D01*
X149557580Y-71435238D01*
X149462342Y-71530476D01*
X149367104Y-71578095D01*
X150557580Y-71292380D02*
X150652819Y-71292380D01*
X150748057Y-71340000D01*
X150795676Y-71387619D01*
X150843295Y-71482857D01*
X150890914Y-71673333D01*
X150890914Y-71911428D01*
X150843295Y-72101904D01*
X150795676Y-72197142D01*
X150748057Y-72244761D01*
X150652819Y-72292380D01*
X150557580Y-72292380D01*
X150462342Y-72244761D01*
X150414723Y-72197142D01*
X150367104Y-72101904D01*
X150319485Y-71911428D01*
X150319485Y-71673333D01*
X150367104Y-71482857D01*
X150414723Y-71387619D01*
X150462342Y-71340000D01*
X150557580Y-71292380D01*
X151509961Y-71292380D02*
X151605200Y-71292380D01*
X151700438Y-71340000D01*
X151748057Y-71387619D01*
X151795676Y-71482857D01*
X151843295Y-71673333D01*
X151843295Y-71911428D01*
X151795676Y-72101904D01*
X151748057Y-72197142D01*
X151700438Y-72244761D01*
X151605200Y-72292380D01*
X151509961Y-72292380D01*
X151414723Y-72244761D01*
X151367104Y-72197142D01*
X151319485Y-72101904D01*
X151271866Y-71911428D01*
X151271866Y-71673333D01*
X151319485Y-71482857D01*
X151367104Y-71387619D01*
X151414723Y-71340000D01*
X151509961Y-71292380D01*
X152271866Y-72292380D02*
X152271866Y-71292380D01*
X152843295Y-72292380D02*
X152414723Y-71720952D01*
X152843295Y-71292380D02*
X152271866Y-71863809D01*
D13*
X150590914Y-74021904D02*
X150324247Y-73640952D01*
X150133771Y-74021904D02*
X150133771Y-73221904D01*
X150438533Y-73221904D01*
X150514723Y-73260000D01*
X150552819Y-73298095D01*
X150590914Y-73374285D01*
X150590914Y-73488571D01*
X150552819Y-73564761D01*
X150514723Y-73602857D01*
X150438533Y-73640952D01*
X150133771Y-73640952D01*
X151352819Y-74021904D02*
X150895676Y-74021904D01*
X151124247Y-74021904D02*
X151124247Y-73221904D01*
X151048057Y-73336190D01*
X150971866Y-73412380D01*
X150895676Y-73450476D01*
X151848057Y-73221904D02*
X151924247Y-73221904D01*
X152000438Y-73260000D01*
X152038533Y-73298095D01*
X152076628Y-73374285D01*
X152114723Y-73526666D01*
X152114723Y-73717142D01*
X152076628Y-73869523D01*
X152038533Y-73945714D01*
X152000438Y-73983809D01*
X151924247Y-74021904D01*
X151848057Y-74021904D01*
X151771866Y-73983809D01*
X151733771Y-73945714D01*
X151695676Y-73869523D01*
X151657580Y-73717142D01*
X151657580Y-73526666D01*
X151695676Y-73374285D01*
X151733771Y-73298095D01*
X151771866Y-73260000D01*
X151848057Y-73221904D01*
%TO.C,R11*%
D14*
X150432561Y-106488580D02*
X149861133Y-106488580D01*
X150146847Y-106488580D02*
X150146847Y-105488580D01*
X150051609Y-105631438D01*
X149956371Y-105726676D01*
X149861133Y-105774295D01*
X151051609Y-105488580D02*
X151146847Y-105488580D01*
X151242085Y-105536200D01*
X151289704Y-105583819D01*
X151337323Y-105679057D01*
X151384942Y-105869533D01*
X151384942Y-106107628D01*
X151337323Y-106298104D01*
X151289704Y-106393342D01*
X151242085Y-106440961D01*
X151146847Y-106488580D01*
X151051609Y-106488580D01*
X150956371Y-106440961D01*
X150908752Y-106393342D01*
X150861133Y-106298104D01*
X150813514Y-106107628D01*
X150813514Y-105869533D01*
X150861133Y-105679057D01*
X150908752Y-105583819D01*
X150956371Y-105536200D01*
X151051609Y-105488580D01*
X151813514Y-106488580D02*
X151813514Y-105488580D01*
X151908752Y-106107628D02*
X152194466Y-106488580D01*
X152194466Y-105821914D02*
X151813514Y-106202866D01*
D13*
X150513514Y-104578104D02*
X150246847Y-104197152D01*
X150056371Y-104578104D02*
X150056371Y-103778104D01*
X150361133Y-103778104D01*
X150437323Y-103816200D01*
X150475419Y-103854295D01*
X150513514Y-103930485D01*
X150513514Y-104044771D01*
X150475419Y-104120961D01*
X150437323Y-104159057D01*
X150361133Y-104197152D01*
X150056371Y-104197152D01*
X151275419Y-104578104D02*
X150818276Y-104578104D01*
X151046847Y-104578104D02*
X151046847Y-103778104D01*
X150970657Y-103892390D01*
X150894466Y-103968580D01*
X150818276Y-104006676D01*
X152037323Y-104578104D02*
X151580180Y-104578104D01*
X151808752Y-104578104D02*
X151808752Y-103778104D01*
X151732561Y-103892390D01*
X151656371Y-103968580D01*
X151580180Y-104006676D01*
%TO.C,U2*%
D14*
X141357742Y-81683000D02*
X141405361Y-81730619D01*
X141452980Y-81873476D01*
X141452980Y-81968714D01*
X141405361Y-82111571D01*
X141310123Y-82206809D01*
X141214885Y-82254428D01*
X141024409Y-82302047D01*
X140881552Y-82302047D01*
X140691076Y-82254428D01*
X140595838Y-82206809D01*
X140500600Y-82111571D01*
X140452980Y-81968714D01*
X140452980Y-81873476D01*
X140500600Y-81730619D01*
X140548219Y-81683000D01*
X140452980Y-80968714D02*
X141167266Y-80968714D01*
X141310123Y-81016333D01*
X141405361Y-81111571D01*
X141452980Y-81254428D01*
X141452980Y-81349666D01*
X140786314Y-80063952D02*
X141452980Y-80063952D01*
X140405361Y-80302047D02*
X141119647Y-80540142D01*
X141119647Y-79921095D01*
X140452980Y-79635380D02*
X140452980Y-79016333D01*
X140833933Y-79349666D01*
X140833933Y-79206809D01*
X140881552Y-79111571D01*
X140929171Y-79063952D01*
X141024409Y-79016333D01*
X141262504Y-79016333D01*
X141357742Y-79063952D01*
X141405361Y-79111571D01*
X141452980Y-79206809D01*
X141452980Y-79492523D01*
X141405361Y-79587761D01*
X141357742Y-79635380D01*
X141452980Y-78063952D02*
X141452980Y-78635380D01*
X141452980Y-78349666D02*
X140452980Y-78349666D01*
X140595838Y-78444904D01*
X140691076Y-78540142D01*
X140738695Y-78635380D01*
X143738695Y-79835380D02*
X143738695Y-80644904D01*
X143786314Y-80740142D01*
X143833933Y-80787761D01*
X143929171Y-80835380D01*
X144119647Y-80835380D01*
X144214885Y-80787761D01*
X144262504Y-80740142D01*
X144310123Y-80644904D01*
X144310123Y-79835380D01*
X144738695Y-79930619D02*
X144786314Y-79883000D01*
X144881552Y-79835380D01*
X145119647Y-79835380D01*
X145214885Y-79883000D01*
X145262504Y-79930619D01*
X145310123Y-80025857D01*
X145310123Y-80121095D01*
X145262504Y-80263952D01*
X144691076Y-80835380D01*
X145310123Y-80835380D01*
%TD*%
M02*
