%TF.GenerationSoftware,KiCad,Pcbnew,(5.1.12-1-10_14)*%
%TF.CreationDate,2021-12-21T21:30:39-06:00*%
%TF.ProjectId,Weather,57656174-6865-4722-9e6b-696361645f70,rev?*%
%TF.SameCoordinates,Original*%
%TF.FileFunction,Paste,Top*%
%TF.FilePolarity,Positive*%
%FSLAX46Y46*%
G04 Gerber Fmt 4.6, Leading zero omitted, Abs format (unit mm)*
G04 Created by KiCad (PCBNEW (5.1.12-1-10_14)) date 2021-12-21 21:30:39*
%MOMM*%
%LPD*%
G01*
G04 APERTURE LIST*
%ADD10R,3.500000X3.500000*%
%ADD11R,0.900000X0.800000*%
%ADD12R,0.900000X2.300000*%
%ADD13C,0.100000*%
G04 APERTURE END LIST*
%TO.C,C4*%
G36*
G01*
X144499300Y-88280002D02*
X144499300Y-86979998D01*
G75*
G02*
X144749298Y-86730000I249998J0D01*
G01*
X145574302Y-86730000D01*
G75*
G02*
X145824300Y-86979998I0J-249998D01*
G01*
X145824300Y-88280002D01*
G75*
G02*
X145574302Y-88530000I-249998J0D01*
G01*
X144749298Y-88530000D01*
G75*
G02*
X144499300Y-88280002I0J249998D01*
G01*
G37*
G36*
G01*
X141374300Y-88280002D02*
X141374300Y-86979998D01*
G75*
G02*
X141624298Y-86730000I249998J0D01*
G01*
X142449302Y-86730000D01*
G75*
G02*
X142699300Y-86979998I0J-249998D01*
G01*
X142699300Y-88280002D01*
G75*
G02*
X142449302Y-88530000I-249998J0D01*
G01*
X141624298Y-88530000D01*
G75*
G02*
X141374300Y-88280002I0J249998D01*
G01*
G37*
%TD*%
%TO.C,C3*%
G36*
G01*
X144499300Y-94630002D02*
X144499300Y-93329998D01*
G75*
G02*
X144749298Y-93080000I249998J0D01*
G01*
X145574302Y-93080000D01*
G75*
G02*
X145824300Y-93329998I0J-249998D01*
G01*
X145824300Y-94630002D01*
G75*
G02*
X145574302Y-94880000I-249998J0D01*
G01*
X144749298Y-94880000D01*
G75*
G02*
X144499300Y-94630002I0J249998D01*
G01*
G37*
G36*
G01*
X141374300Y-94630002D02*
X141374300Y-93329998D01*
G75*
G02*
X141624298Y-93080000I249998J0D01*
G01*
X142449302Y-93080000D01*
G75*
G02*
X142699300Y-93329998I0J-249998D01*
G01*
X142699300Y-94630002D01*
G75*
G02*
X142449302Y-94880000I-249998J0D01*
G01*
X141624298Y-94880000D01*
G75*
G02*
X141374300Y-94630002I0J249998D01*
G01*
G37*
%TD*%
%TO.C,C2*%
G36*
G01*
X149506500Y-92491798D02*
X149506500Y-93791802D01*
G75*
G02*
X149256502Y-94041800I-249998J0D01*
G01*
X148431498Y-94041800D01*
G75*
G02*
X148181500Y-93791802I0J249998D01*
G01*
X148181500Y-92491798D01*
G75*
G02*
X148431498Y-92241800I249998J0D01*
G01*
X149256502Y-92241800D01*
G75*
G02*
X149506500Y-92491798I0J-249998D01*
G01*
G37*
G36*
G01*
X152631500Y-92491798D02*
X152631500Y-93791802D01*
G75*
G02*
X152381502Y-94041800I-249998J0D01*
G01*
X151556498Y-94041800D01*
G75*
G02*
X151306500Y-93791802I0J249998D01*
G01*
X151306500Y-92491798D01*
G75*
G02*
X151556498Y-92241800I249998J0D01*
G01*
X152381502Y-92241800D01*
G75*
G02*
X152631500Y-92491798I0J-249998D01*
G01*
G37*
%TD*%
D10*
%TO.C,L1*%
X117805200Y-121954400D03*
X117805200Y-130454400D03*
%TD*%
%TO.C,C7*%
G36*
G01*
X122530900Y-113954797D02*
X122530900Y-115254803D01*
G75*
G02*
X122280903Y-115504800I-249997J0D01*
G01*
X121455897Y-115504800D01*
G75*
G02*
X121205900Y-115254803I0J249997D01*
G01*
X121205900Y-113954797D01*
G75*
G02*
X121455897Y-113704800I249997J0D01*
G01*
X122280903Y-113704800D01*
G75*
G02*
X122530900Y-113954797I0J-249997D01*
G01*
G37*
G36*
G01*
X125655900Y-113954797D02*
X125655900Y-115254803D01*
G75*
G02*
X125405903Y-115504800I-249997J0D01*
G01*
X124580897Y-115504800D01*
G75*
G02*
X124330900Y-115254803I0J249997D01*
G01*
X124330900Y-113954797D01*
G75*
G02*
X124580897Y-113704800I249997J0D01*
G01*
X125405903Y-113704800D01*
G75*
G02*
X125655900Y-113954797I0J-249997D01*
G01*
G37*
%TD*%
%TO.C,C1*%
G36*
G01*
X146776203Y-101501300D02*
X145476197Y-101501300D01*
G75*
G02*
X145226200Y-101251303I0J249997D01*
G01*
X145226200Y-100426297D01*
G75*
G02*
X145476197Y-100176300I249997J0D01*
G01*
X146776203Y-100176300D01*
G75*
G02*
X147026200Y-100426297I0J-249997D01*
G01*
X147026200Y-101251303D01*
G75*
G02*
X146776203Y-101501300I-249997J0D01*
G01*
G37*
G36*
G01*
X146776203Y-98376300D02*
X145476197Y-98376300D01*
G75*
G02*
X145226200Y-98126303I0J249997D01*
G01*
X145226200Y-97301297D01*
G75*
G02*
X145476197Y-97051300I249997J0D01*
G01*
X146776203Y-97051300D01*
G75*
G02*
X147026200Y-97301297I0J-249997D01*
G01*
X147026200Y-98126303D01*
G75*
G02*
X146776203Y-98376300I-249997J0D01*
G01*
G37*
%TD*%
D11*
%TO.C,D1*%
X135890000Y-93980000D03*
X137890000Y-93030000D03*
X137890000Y-94930000D03*
%TD*%
%TO.C,D2*%
X137890000Y-88580000D03*
X137890000Y-86680000D03*
X135890000Y-87630000D03*
%TD*%
%TO.C,D3*%
X137890000Y-82230000D03*
X137890000Y-80330000D03*
X135890000Y-81280000D03*
%TD*%
%TO.C,R1*%
G36*
G01*
X136056200Y-97190399D02*
X136056200Y-98440401D01*
G75*
G02*
X135806201Y-98690400I-249999J0D01*
G01*
X135006199Y-98690400D01*
G75*
G02*
X134756200Y-98440401I0J249999D01*
G01*
X134756200Y-97190399D01*
G75*
G02*
X135006199Y-96940400I249999J0D01*
G01*
X135806201Y-96940400D01*
G75*
G02*
X136056200Y-97190399I0J-249999D01*
G01*
G37*
G36*
G01*
X139156200Y-97190399D02*
X139156200Y-98440401D01*
G75*
G02*
X138906201Y-98690400I-249999J0D01*
G01*
X138106199Y-98690400D01*
G75*
G02*
X137856200Y-98440401I0J249999D01*
G01*
X137856200Y-97190399D01*
G75*
G02*
X138106199Y-96940400I249999J0D01*
G01*
X138906201Y-96940400D01*
G75*
G02*
X139156200Y-97190399I0J-249999D01*
G01*
G37*
%TD*%
%TO.C,R2*%
G36*
G01*
X137578000Y-72761001D02*
X137578000Y-71510999D01*
G75*
G02*
X137827999Y-71261000I249999J0D01*
G01*
X138628001Y-71261000D01*
G75*
G02*
X138878000Y-71510999I0J-249999D01*
G01*
X138878000Y-72761001D01*
G75*
G02*
X138628001Y-73011000I-249999J0D01*
G01*
X137827999Y-73011000D01*
G75*
G02*
X137578000Y-72761001I0J249999D01*
G01*
G37*
G36*
G01*
X134478000Y-72761001D02*
X134478000Y-71510999D01*
G75*
G02*
X134727999Y-71261000I249999J0D01*
G01*
X135528001Y-71261000D01*
G75*
G02*
X135778000Y-71510999I0J-249999D01*
G01*
X135778000Y-72761001D01*
G75*
G02*
X135528001Y-73011000I-249999J0D01*
G01*
X134727999Y-73011000D01*
G75*
G02*
X134478000Y-72761001I0J249999D01*
G01*
G37*
%TD*%
%TO.C,R3*%
G36*
G01*
X137578000Y-76825001D02*
X137578000Y-75574999D01*
G75*
G02*
X137827999Y-75325000I249999J0D01*
G01*
X138628001Y-75325000D01*
G75*
G02*
X138878000Y-75574999I0J-249999D01*
G01*
X138878000Y-76825001D01*
G75*
G02*
X138628001Y-77075000I-249999J0D01*
G01*
X137827999Y-77075000D01*
G75*
G02*
X137578000Y-76825001I0J249999D01*
G01*
G37*
G36*
G01*
X134478000Y-76825001D02*
X134478000Y-75574999D01*
G75*
G02*
X134727999Y-75325000I249999J0D01*
G01*
X135528001Y-75325000D01*
G75*
G02*
X135778000Y-75574999I0J-249999D01*
G01*
X135778000Y-76825001D01*
G75*
G02*
X135528001Y-77075000I-249999J0D01*
G01*
X134727999Y-77075000D01*
G75*
G02*
X134478000Y-76825001I0J249999D01*
G01*
G37*
%TD*%
%TO.C,R5*%
G36*
G01*
X142992001Y-101463800D02*
X141741999Y-101463800D01*
G75*
G02*
X141492000Y-101213801I0J249999D01*
G01*
X141492000Y-100413799D01*
G75*
G02*
X141741999Y-100163800I249999J0D01*
G01*
X142992001Y-100163800D01*
G75*
G02*
X143242000Y-100413799I0J-249999D01*
G01*
X143242000Y-101213801D01*
G75*
G02*
X142992001Y-101463800I-249999J0D01*
G01*
G37*
G36*
G01*
X142992001Y-98363800D02*
X141741999Y-98363800D01*
G75*
G02*
X141492000Y-98113801I0J249999D01*
G01*
X141492000Y-97313799D01*
G75*
G02*
X141741999Y-97063800I249999J0D01*
G01*
X142992001Y-97063800D01*
G75*
G02*
X143242000Y-97313799I0J-249999D01*
G01*
X143242000Y-98113801D01*
G75*
G02*
X142992001Y-98363800I-249999J0D01*
G01*
G37*
%TD*%
%TO.C,R8*%
G36*
G01*
X145781000Y-69255801D02*
X145781000Y-68005799D01*
G75*
G02*
X146030999Y-67755800I249999J0D01*
G01*
X146831001Y-67755800D01*
G75*
G02*
X147081000Y-68005799I0J-249999D01*
G01*
X147081000Y-69255801D01*
G75*
G02*
X146831001Y-69505800I-249999J0D01*
G01*
X146030999Y-69505800D01*
G75*
G02*
X145781000Y-69255801I0J249999D01*
G01*
G37*
G36*
G01*
X142681000Y-69255801D02*
X142681000Y-68005799D01*
G75*
G02*
X142930999Y-67755800I249999J0D01*
G01*
X143731001Y-67755800D01*
G75*
G02*
X143981000Y-68005799I0J-249999D01*
G01*
X143981000Y-69255801D01*
G75*
G02*
X143731001Y-69505800I-249999J0D01*
G01*
X142930999Y-69505800D01*
G75*
G02*
X142681000Y-69255801I0J249999D01*
G01*
G37*
%TD*%
%TO.C,R9*%
G36*
G01*
X144184200Y-73060399D02*
X144184200Y-74310401D01*
G75*
G02*
X143934201Y-74560400I-249999J0D01*
G01*
X143134199Y-74560400D01*
G75*
G02*
X142884200Y-74310401I0J249999D01*
G01*
X142884200Y-73060399D01*
G75*
G02*
X143134199Y-72810400I249999J0D01*
G01*
X143934201Y-72810400D01*
G75*
G02*
X144184200Y-73060399I0J-249999D01*
G01*
G37*
G36*
G01*
X147284200Y-73060399D02*
X147284200Y-74310401D01*
G75*
G02*
X147034201Y-74560400I-249999J0D01*
G01*
X146234199Y-74560400D01*
G75*
G02*
X145984200Y-74310401I0J249999D01*
G01*
X145984200Y-73060399D01*
G75*
G02*
X146234199Y-72810400I249999J0D01*
G01*
X147034201Y-72810400D01*
G75*
G02*
X147284200Y-73060399I0J-249999D01*
G01*
G37*
%TD*%
%TO.C,R10*%
G36*
G01*
X153305200Y-73034999D02*
X153305200Y-74285001D01*
G75*
G02*
X153055201Y-74535000I-249999J0D01*
G01*
X152255199Y-74535000D01*
G75*
G02*
X152005200Y-74285001I0J249999D01*
G01*
X152005200Y-73034999D01*
G75*
G02*
X152255199Y-72785000I249999J0D01*
G01*
X153055201Y-72785000D01*
G75*
G02*
X153305200Y-73034999I0J-249999D01*
G01*
G37*
G36*
G01*
X150205200Y-73034999D02*
X150205200Y-74285001D01*
G75*
G02*
X149955201Y-74535000I-249999J0D01*
G01*
X149155199Y-74535000D01*
G75*
G02*
X148905200Y-74285001I0J249999D01*
G01*
X148905200Y-73034999D01*
G75*
G02*
X149155199Y-72785000I249999J0D01*
G01*
X149955201Y-72785000D01*
G75*
G02*
X150205200Y-73034999I0J-249999D01*
G01*
G37*
%TD*%
%TO.C,R11*%
G36*
G01*
X148827800Y-104841201D02*
X148827800Y-103591199D01*
G75*
G02*
X149077799Y-103341200I249999J0D01*
G01*
X149877801Y-103341200D01*
G75*
G02*
X150127800Y-103591199I0J-249999D01*
G01*
X150127800Y-104841201D01*
G75*
G02*
X149877801Y-105091200I-249999J0D01*
G01*
X149077799Y-105091200D01*
G75*
G02*
X148827800Y-104841201I0J249999D01*
G01*
G37*
G36*
G01*
X151927800Y-104841201D02*
X151927800Y-103591199D01*
G75*
G02*
X152177799Y-103341200I249999J0D01*
G01*
X152977801Y-103341200D01*
G75*
G02*
X153227800Y-103591199I0J-249999D01*
G01*
X153227800Y-104841201D01*
G75*
G02*
X152977801Y-105091200I-249999J0D01*
G01*
X152177799Y-105091200D01*
G75*
G02*
X151927800Y-104841201I0J249999D01*
G01*
G37*
%TD*%
D12*
%TO.C,U2*%
X146000600Y-77733000D03*
X143000600Y-77733000D03*
D13*
G36*
X143634100Y-83183000D02*
G01*
X143634100Y-79058000D01*
X144050600Y-79058000D01*
X144050600Y-76583000D01*
X144950600Y-76583000D01*
X144950600Y-79058000D01*
X145367100Y-79058000D01*
X145367100Y-83183000D01*
X143634100Y-83183000D01*
G37*
%TD*%
M02*
